<?xml version="1.0" encoding="UTF-8"?>
<svg id="Calque_1" data-name="Calque 1" xmlns="http://www.w3.org/2000/svg" viewBox="0 0 453.36 453.36">
  <defs>
    <style>
      .cls-1 {
        fill: #6a3e10;
      }

      .cls-2 {
        fill: #f28e00;
      }

      .cls-3 {
        fill: #f28d00;
      }

      .cls-4 {
        fill: #6b491b;
      }

      .cls-5 {
        fill: #81541a;
      }

      .cls-6 {
        fill: #68481d;
      }

      .cls-7 {
        fill: #6c4b1e;
      }

      .cls-8 {
        fill: #996018;
      }

      .cls-9 {
        fill: #a26514;
      }

      .cls-10 {
        fill: #a06314;
      }

      .cls-11 {
        fill: #a16414;
      }

      .cls-12 {
        fill: #c27311;
      }

      .cls-13 {
        fill: #c27312;
      }

      .cls-14 {
        fill: #9e6316;
      }

      .cls-15 {
        fill: #9e6115;
      }

      .cls-16 {
        fill: #8d5a18;
      }

      .cls-17 {
        fill: #c37412;
      }

      .cls-18 {
        fill: #c37211;
      }

      .cls-19 {
        fill: #b46d13;
      }

      .cls-20 {
        fill: #915d16;
      }

      .cls-21 {
        fill: #915d17;
      }

      .cls-22 {
        fill: #8e5c15;
      }

      .cls-23 {
        fill: #ba6e12;
      }

      .cls-24 {
        fill: #cf790f;
      }

      .cls-25 {
        fill: #ce790f;
      }

      .cls-26 {
        fill: #bc7013;
      }

      .cls-27 {
        fill: #be7212;
      }

      .cls-28 {
        fill: #bf7212;
      }

      .cls-29 {
        fill: #bf7213;
      }

      .cls-30 {
        fill: #c07212;
      }

      .cls-31 {
        fill: #c17312;
      }

      .cls-32 {
        fill: #cd7810;
      }

      .cls-33 {
        fill: #cb7710;
      }

      .cls-34 {
        fill: #cb7711;
      }

      .cls-35 {
        fill: #cc7810;
      }

      .cls-36 {
        fill: #d37b0e;
      }

      .cls-37 {
        fill: #c47412;
      }

      .cls-38 {
        fill: #c57511;
      }

      .cls-39 {
        fill: #d57c0d;
      }

      .cls-40 {
        fill: #d67c0d;
      }

      .cls-41 {
        fill: #d67c0b;
      }

      .cls-42 {
        fill: #ae6a14;
      }

      .cls-43 {
        fill: #c87610;
      }

      .cls-44 {
        fill: #c97611;
      }

      .cls-45 {
        fill: #423a30;
      }

      .cls-46 {
        fill: #363533;
      }

      .cls-47 {
        fill: #373533;
      }

      .cls-48 {
        fill: #6e4d20;
      }

      .cls-49 {
        fill: #714f1e;
      }

      .cls-50 {
        fill: #6f4d1f;
      }

      .cls-51 {
        fill: #885915;
      }

      .cls-52 {
        fill: #884f13;
      }

      .cls-53 {
        fill: #644922;
      }

      .cls-54 {
        fill: #353533;
      }

      .cls-55 {
        fill: #383533;
      }

      .cls-56 {
        fill: #5a4427;
      }

      .cls-57 {
        fill: #633c11;
      }

      .cls-58 {
        fill: #604725;
      }

      .cls-59 {
        fill: #603a11;
      }

      .cls-60 {
        fill: #5f4725;
      }

      .cls-61 {
        fill: #75511c;
      }

      .cls-62 {
        fill: #7a531d;
      }

      .cls-63 {
        fill: #835618;
      }
    </style>
  </defs>
  <circle class="cls-2" cx="226.68" cy="226.68" r="226.68"/>
  <g>
    <path class="cls-55" d="m343.94,98.5c1.18.94,1.94,2.29,3.5,2.94.95.39-.78,1.54-.12,2.43,1.46,1.61,1,3.54.6,5.3-.22.99-.23,1.91-.21,2.88-.21.82-.9,1.25-1.46,1.78-1.35.81-1.87,2.35-2.95,3.4-1.31.48-2.11,1.62-3.12,2.48-3.56,3.03-7.35,5.72-10.65,9.12-2.17,2.24-4.99,4.04-7.18,6.36-1.05,1.11-2.41,1.05-3.56,1.67-4.28,2.31-6.51,6.48-9.56,9.86-2.43,2.69-4.83,5.33-7.56,7.73-2.09,1.84-3.33,4.55-5.55,6.3-2.12,1.67-3.54,4.04-5.87,5.45-1.62.17-1.77,1.47-1.73,2.61.08,2.15-.32,4.35.57,6.43.52,1.23-.45,2.49.11,3.72.93,2.6.48,5.32.73,7.96.28,3-.71,6.03.49,9,.49,1.21.48,2.65.02,3.98-.84,1.06-.87,2.3-.96,3.58-.21,2.97-.56,5.93-1.96,8.64-.65.54-.99,1.17-1.07,2.08-.35,3.75-.65,7.5-.54,11.27.01.45.1.94-.02,1.36-1.95,6.49-1.18,13.1-.66,19.65.21,2.61-.51,5.22.17,7.8-.18,2.65.35,5.28.32,7.92-1.99,4.94-.88,10.04-.8,15.09.03,2,.59,3.93-.33,6.06-.83,1.91-.67,4.26.95,6.09.61,1.32.92,2.77,1.6,4.06.99,1.26,1.83,2.64,3.04,3.72.12.37.11.76.12,1.14-.16,1.35.3,2.5,1.23,3.46,1.88,1.94,3.4,4.21,5.45,5.99,2.74,2.38,4.24,5.69,6.45,8.46.77.96,1.43,1.8,2.79,2.31,1.91.72,3.35,2.47,4.52,4.19.83,1.23,1.83,2.23,2.98,3.11,1.44.92,2.56,2.13,3.4,3.62.1,1.29.81,2.24,1.76,3.05.15.2.25.42.31.65.27.98.95,1.65,1.7,2.26,1.2,1.54,3.03,2.44,4.12,4.1.65.99,1.33,1.96.21,3.06-.31.19-.76.2-.97.47-1.29,1.74-2.43,3.97-5.14,2.76-1.92-.86-3.97-.72-5.98-1.99-4.69-2.97-9.4-5.88-13.77-9.31-.44-.34-1.06-.21-1.58-.36-2.8-1.64-4.79-4.27-7.47-6.05-.5-.59-.67-1.38-1.15-1.98-.5-.57-1.16-1.57-1.82-.83-.99,1.11.28,2,.87,2.9.08.25.1.5.07.76-.47,1.21-2.02,2.05-1.25,3.69.03.25.05.51.08.76.17,1.02.54,2,.61,3.04.12.37.25.74.28,1.14-.08,3.6.54,7.16.82,10.74.17,2.1-.19,3.85-2.71,4.2-1.92.27-1.7,1.72-1.42,2.91,1.62,6.87.57,13.81.68,20.71,0,.18-.06.36-.1.53-.88,2.21-.46,4.42-.17,6.68.53,4.04.53,8.05-1.52,11.79-1.6,2.92-5.8,4.33-8.85,2.92-.79-.37-1.53-.95-1.51-1.78.14-4.67-1.37-9.19.31-14.08,1.46-4.23,1.06-9.09,1.21-13.69-.1,2.14-.34,4.27-.3,6.41.01.66.43,1.64-.42,1.96-.91.35-1.08-.71-1.49-1.24-.22-.29-.52-.51-.74-.8-.36-.44-.59-.95-.66-1.51-.21-2.16.3-4.37-.48-6.49-.75-3.71-.44-7.43-.18-11.15.77-3.68.26-7.32-.28-10.97.03-3.52.07-7.05-.36-10.56,1.42-5.24-1.09-10.31-.64-15.54.22-2.59-.12-5.21.25-7.85.22-1.54.65-3.54-1.54-4.42-3.76-1.3-7.11-3.25-9.73-6.31-.98-1.3-2.37-2.3-3.25-3.62-2.64-3.98-6.45-6.81-9.56-10.31-1.14-1.29-2.06-2.74-3.74-3.41-1.22-1.09-2.44-2.18-2.68-3.94-.05-.37-.21-.75-.55-.9-3.69-1.55-5.67-5.14-8.86-7.42-3.76-2.68-7.11-6.11-10.39-9.49-2.38-2.44-4.37-5.19-6.53-7.81-.19-.18-.34-.38-.45-.62-.46-1.42-1.32-2.41-2.69-3.14-2.92-1.56-4.03-4.62-5.56-7.29-.25-.43.08-1.05.06-1.59-.12-2.84-2.42-.88-3.58-1.54-.89-.51-1.83.45-2.14,1.53-.28.96-.3,1.95-.31,2.95-.06,10.65.1,21.3-.77,31.94-.36,4.4.42,8.85,1.66,13.13,1.03,3.57.88,7.07-.22,10.58-.28.15-.57.21-.89.18-1.11-.25-1.64-1.11-1.98-2.06-1.47-4.13-2.4-8.37-2.26-12.78.35-2.5.42-5-.02-7.5.17-2.27-1.03-4.52-.13-6.81,1.92-10.87.65-21.83,1.01-32.74.05-1.51-.26-3.17,1.62-3.92.78-.19,1.51-.01,2.24.26.88.22,1.76.36,2.65.03,3.19-1.17,4.71-.89,6.75,1.58.89,1.08,1.99,1.8,3.08,2.58,5.29,5.24,9.73,11.29,15.2,16.37.84,3.12,3.15,4.96,5.74,6.56,1.2.59,2.21,1.4,3.05,2.44.65,2.02,1.78,3.58,3.94,4.19,6.74,6.31,13.88,12.24,19.89,19.28,3.31,3.87,6.54,7.73,10.47,11.01,1.68,1.4,2.85,3.28,3.24,5.54.19,1.12.75,2.02,1.65,2.73,2.49,1.98,3.72,4.62,4.02,7.75-.39,1.98.14,3.95.1,5.92-.42,1.92-.29,3.86-.11,5.8-.35,2.08.22,4.11.53,6.12.57,3.68.5,7.29-.15,10.92-.72,3.98-.72,7.96-.1,11.94.07.27.11.54.13.82.91,4.14.44,8.32.55,12.86-.64-2.76,2.9-4.13,1.43-6.79-.55-1.47-.67-2.96-.38-4.52.67-3.65.75-7.33.45-11.03-.09-1.08.2-2.15.59-3.17.87-2.06.6-4.14.14-6.23-.07-1.54-.02-3.07-.04-4.61.01-1.82.01-3.63-.47-5.4.05-1.83-.43-3.62-.46-5.45.48-2.11,1.6-3.49,3.95-3.45,1.54.39,2.95,1,4.72.5,1.32-.37,2.81.41,4,1.35,6.91,5.44,13.39,11.36,18.51,15.79-2.1-2.28-5.58-5.93-8.33-10.38-2.04-3.29-5.77-5.42-8.82-7.98-.81-1.45-2.35-1.75-3.71-2.31-.85-1.29-2.23-1.82-3.52-2.5-1.93-2.59-3.56-5.43-6.02-7.57-1.73-1.51-2.19-3.57-2.21-5.6-.02-2.22-.19-4.47.05-6.7,2.16-8.42.5-16.94.7-25.41.18-7.59-.22-15.2.93-22.76.55-3.65.04-7.41-.04-11.08-.15-6.71.5-13.37.3-20.07-.26-8.66-.39-17.34-.47-26.01-.05-5.31.13-10.76,1.51-15.9,1.47-5.51,4.17-10.56,8.89-14.18.16-.2.32-.4.5-.59.25-.26-.06.09.2-.17-.02,0-.02.02-.06.03-1.48,1.74-3.26,3.16-4.64,4.97-.74.97-1.76,1.29-2.89.73-1.26-.62-1.53-1.71-1.17-2.98.52-1.86,1.26-3.55,3.13-4.54,1.87-.99,3.18-2.66,4.64-4.13,2.99-3.01,5.9-6.12,9.66-8.23,1.11-.69,2.67,1.04,3.59-.67.85-.79.62-1.74.4-2.69.35-1.89,1.55-3.28,2.98-4.34,3.48-2.6,5.81-6.33,9.12-9.08,1.78-1.5,3.09-3.4,4.41-5.28.09-.73-.47-1.28-.56-1.97.05-1.87,1.1-2.87,2.88-2.92,1.68-.05,2.21,1.07,2.48,2.62.34,1.9,1.78,1.18,2.32.35,1.39-2.13,3.31-3.08,5.67-3.75,2.01-.57,3.27-4.09,2.41-5.71-.9-1.69-3.66-1.92-5.76-.33-5.83,4.42-11.74,8.81-17.05,13.82-2.9,2.74-5.59,5.9-7.67,9.44-2.89,2.88-4.6,6.87-8.46,8.84-.79.4-1.43,1.1-2.42.99-.57-.05-1.07-.24-1.46-.69-.29-.41-.44-.91-.81-1.27-1.13-.99-2.3-.31-3.47-.11-2.07.74-4.15.77-6.24.08-1.67-.8-2.04-2.33-2.2-3.97-.1-.97-.13-1.95-.36-2.9-.14-1.74.21-3.47-.02-5.21.07-5.43-.13-10.85-.52-16.27-.07-.9-.35-1.82-.21-2.71,1.1-6.98-.37-13.94-.05-20.92.1-2.29.3-4.52,1.53-6.54.69-1.14.75-2.43.52-3.71-.35-1.93-2.08-2.65-3.55-2.97-1.23-.27-1.42,1.45-1.67,2.41-1.68,6.37-3,13.08-1.56,19.37,1.32,5.82,1.55,11.54,1.13,17.22-.42,5.79-.17,11.57-.64,17.35-.32,3.92.29,7.92-.25,11.91-.3,2.26-.84,4.22-2.54,5.81-1.05.99-2.23,1.94-2.8,3.3-.64,1.52-2.8,3.72,1.41,3.45,1.27-.08,1.98,1.07,2.12,2.43.17,1.66-.39,3.16-1.41,4.29-2.66,2.96-2.6,6.41-2.18,9.99.08.86.4,1.67.5,2.53-.04,3.35-2.61,5.08-4.62,7.17-1.03.54-2.04,1.16-3.14,1.48.17-.07.31-.11.48-.15,1.29-.55,2.5-1.18,3.62-1.99.93-.58,1.95-.95,2.93-1.41,2.82-1.35,4.34-.45,5.08,2.51,1.35,5.34,1.04,10.75,1.11,16.16.06,4.24-.3,8.49.26,12.71.08,2.27-.02,4.55.22,6.82-.21,10.03.38,20.04.7,30.06.17,5.39.26,10.83,1.2,16.19-1.16,3.36.03,6.7.11,10.05-.4,4.4-1.46,8.78-.06,13.21.51,1.61-.24,3.23-.34,4.85-1.47,2.41-2.1,2.63-4.88,1.73-3.93-1.18-7.14-3.38-9.52-6.74-.71-1.14-1.6-2.1-2.8-2.74-.21-.13-.4-.28-.58-.45-1.45-1.41-3.07-2.51-5.14-2.79-1.01-.68-1.82-1.55-2.61-2.47-.5-1.41-.63-2.99-1.87-4.07-5.55-6.01-10.11-12.87-16.21-18.43-4.06-3.7-7.91-7.63-11.82-11.5-.52-.57-.65-1.35-1.1-1.97-.46-1.54-2.06-1.91-3.01-2.94-1.3-1.44-2.94-2.41-4.61-3.34-1.94-1.77-2.88-4.16-4.01-6.44-.47-1.65-.33-3.39-.76-5.04.02-1.27.6-2.33,1.57-3.03,5.23-3.77,9.33-8.84,14.64-12.51,1.86-1.29,3.92-2.28,5.65-3.75,3.37-1.28,6.41-3.01,8.89-5.75,1.28-1.42,3.3-1.88,4.69-3.43,1.04-1.16,2.3-2.21,3.3-3.47.21-.27.52-.5.46-.91-1.02-.5-1.62.38-2.39.69-7.91,6.59-16.39,12.44-24.49,18.79-2.39,1.88-4.34,4.58-7.58,5.31-3.7-.76-4.14-1.97-1.96-5.33.14-.25.33-.46.56-.64,3.81-1.43,7.54-3,10.36-6.12,3.08-1.9,5.77-4.25,8.11-7.01,2.09-3.61,6.08-5.14,8.83-8.03.26-.24.7-.3.74-.71-.04.02-.26.03-.26.03,0,0-.21,0-.24,0-1.99-.23-2.33,1.4-3.02,2.64-.9,1-2.17,1.6-3.36,1.45-2.88-.37-4.71,1.39-6.68,2.88-4.01,3.02-7.41,6.75-11.36,9.85-.51.4-.81.96-1.03,1.56-1.38,1.6-3.17,2.73-4.7,4.16-3.61,1.71-6.71,4.49-10.78,5.27-.87.78-1.54,1.86-2.9,1.87-1.48-.27-1.93-1.18-1.58-2.58.32-1.26.26-2.52-.12-3.76-.08-.26-.1-.53-.1-.81.5-2.59-.28-4.95-1.26-7.28-1.19-3.75-1.83-7.55-1.07-11.48.49-1.82.45-3.66.21-5.51-1.05-5.39,2.03-10,2.85-15.04.13-.8.48-1.59.35-2.41-.67-4.07-.02-8.32,1.7-11.63,1.89-3.65,2.44-7.78,4.56-11.12,3-4.73,6.66-9.01,11.77-11.82,3.14-1.72,5.84-3.98,6.76-7.76.31-1.25,1.22-2.21,2.3-2.95,5.57-3.81,10.03-8.84,14.78-13.54,2.61-2.57,3.1-5.05-1.13-6.9-.83-.36-1.64-.86-1.57-1.99.95-1.29,2.59-1.2,3.83-1.92,3.98-1.21,7.57-.14,11,1.88.48.67.52,1.44.52,2.22-.35,2.07.32,4.3-.93,6.24.65,3.71-1.53,6.38-3.53,8.99-.81,1.06-1.56,2.15-2.35,3.23-1.13,2.22-3,3.75-4.87,5.28-.76.62-1.66,1.09-2.18,1.98-1.75,2.11-3.98,3.66-6.16,5.28-2.16,1.01-4.01,2.69-6.46,3.12-1-.19-1.85-.2-2.63.75-2.21,2.68-4.82,5.01-7.05,7.69-2.39,3.84-5.83,6.76-8.91,9.97-1.31,1.37-2.11,2.91-1.41,4.32,1.69,3.39.29,6.31-.73,9.36-.59,1.18.41,2.48-.25,3.66-.25.43-.68.7-.95,1.12-.22,4.61-2.18,8.89-2.46,13.48-.57,5.61.58,11.03,1.82,16.44.52,2.3,2,2.93,4.27,2.1,5.1-1.87,8.78-5.55,12.28-9.48.48-.54.95-1.09,1.51-1.55,5.88-4.85,11.34-10.15,16.48-15.75,7.1-7.73,14.6-15.1,21.55-22.97,1.28-1.44,2.9-2.46,4.38-3.63,3.01-2.37,5.55-4.84,5.28-9.05.81-4.38-.01-8.71-.42-13.06.62-3.21.78-6.42.02-9.63-.71-1.75-.37-3.45.27-5.13.13-2.79.53-5.56.7-8.34.06-1.07.15-2.07,1.43-2.25,1.42-.19,1.79.79,2.11,1.94.3,1.08.39,2.12.34,2.43.19-3.12-2.02-6.76-1.47-10.65.92-6.55-.42-13.22,1.03-19.69,1.25-5.57,2.98-11.05,6.17-15.89,1.16-1.76,3.18-2.6,4.75-3.94.28-.08.56-.09.85-.03,2.67.68,3.1,3.11,3.28,5.11.52,5.75,2.17,11.38,1.91,17.21-.45,8.74-.39,17.48-.1,26.23.05,1.35.5,2.58,1.5,3.67,1.12,1.23,1.39,2.61.1,4.11-1.83,2.14-1.71,6.78.1,8.98.78.95.89,1.98.45,3.05-.47,1.13-.68,2.33-.38,3.45.27,1.01.61-.33.99-.18,3.42-1.63,5.61-4.74,8.29-7.21,4.43-4.09,9.5-7.08,14.63-10.08,3.81-2.22,6.84-5.36,9.18-9.07,1.83-2.9,4.19-4.83,7.5-5.84,2.58-.79,4.92-2.22,7.58-2.91,2.87-.74,5.33-.45,7.44,1.74Z"/>
    <path class="cls-2" d="m286.3,333.33c-.12-.15-.15-.32-.08-.5.82-1.19.87-2.68,1.54-3.93.02-.14.02-.28,0-.42-.8-.63-.98-1.34-.29-2.17,1.68-1.33,2.48.53,3.66,1,2.74,1.46,4.74,3.82,7,5.86,5.33,3.99,10.76,7.84,16.01,11.94,1.54,2.41,5.91,4.26,8.67,3.67,1.5-.32,3.03-3.17,2.99-5.01-.08-3.73-2.33-6.04-4.96-8.17-.95-.62-1.71-1.46-2.53-2.24h0c-.77-1.08-1.27-2.33-2.13-3.34-1.07-1.09-2.14-2.18-3.21-3.27-.42-2.69-2.69-4.01-4.32-5.8-.19-.4-.43-.84-.3-1.26.67-2.28-.59-3.25-2.51-3.81-.22-.15-.39-.34-.54-.56-.03-2.57-1.25-4.11-3.8-4.72-2.28-.55-2.46-2.9-3.44-4.51-1.05-1.72-2.19-3.03-4.33-3.1-2.39-.65-3.28-2.67-4.23-4.63-.04-.34-.09-.67-.13-1.01-.38-.95-1.24-1.75-.87-2.92.2-.85,1.03-1.28,1.35-2.05.85-3.63-.51-7.23-.18-10.86.09-.96-.38-2.18,1.39-1.69,1.79,1.96,3.33,4.05,3.65,6.82.11,1.01.31,1.99-.16,2.93-3.24,6.51-.4,7.68,3.93,10.35,4.5,2.76,7.9,6.42,10.89,10.57,2.16,3,3.77,6.36,6.02,9.32,1.14,1.5,2.05,3.21,1.49,5.3-.38,1.4.38,2.29,1.37,3.27,2.59,2.59,5.76,4.34,8.69,6.43,3.75,2.68,5.8,6.35,6.57,10.79.72,4.11-4.87,9.4-9.3,8.88-6.61-.78-12.2-3.58-17.1-8.09-4.46-4.1-9.2-7.9-13.84-11.81-.45-.38-.9-1.06-1.62-.74-.72.32-.44,1.1-.56,1.69-.76,3.69.83,7.03,1.96,10.28.96,2.76.55,4.96-.68,7.24-1.07,1.98-1.75,3.99-1.26,6.25.85,3.91-.54,7.39-1.61,11.06-.91,3.12-.71,6.59-.77,9.92-.02,1.25.21,2.52.03,3.79-.53,1.11-.35,2.41-.92,3.51-.27.51-.41,1.07-.1,1.56,1.63,2.61,1.27,5.63,1.64,8.47.57,4.38-4.61,11.6-8.86,12.85-2.52.74-8.1-1.68-9.51-3.92-2.67-4.26-3.17-8.52-1.6-13.44.92-2.89,1.34-6.19.66-9.39-.37-1.7-.47-3.48-.02-5.14.55-2-.08-3.48-1.18-5.05-1.77-2.51-2.63-5.18-.59-8.03.2-.28.4-.68.37-1-.4-4.44,1.06-9.01-.84-13.33-.82-1.87-.82-3.7-.2-5.57,1.75-5.31.82-10.33-1.4-15.31-1.03-2.31-2.19-4.63-2.88-7.03-.85-2.95-.09-6.08.47-9.09.3-1.6.86-3.16,1.08-4.77.24-1.73-.41-2.99-2.35-3.34-2.18-.4-4.1-1.41-5.8-2.83-.28-.23-.53-.59-.85-.66-6.39-1.41-9.6-7.41-14.94-10.33-1.04-.57-.96-1.86-1.12-2.94-.74-5.03-2.98-8.74-8.54-9.42-.75-.09-1.48-.36-1.89-.98-2.58-3.96-6.91-5.55-10.78-7.56-2.9-1.51-4.1-3.93-5.45-6.46-.47-.88-.8-1.83-1.27-2.71-.36-.69-.63-1.73-1.69-1.41-.95.29-.87,1.31-.85,2.1.12,5.09-.3,10.15-1.09,15.17-.51,3.21-2.19,6.07-2.55,9.4-.39,3.59-.17,6.5,2.86,8.99,2.58,2.12,4.69,4.76,6.05,7.93.72,1.68,1.95,3.17,3.52,4.08,3.95,2.28,6.46,6.03,9.68,9.05.53.5.97,1.08,1.67,1.35,4.46,1.72,6.92,5.04,7.72,9.68.16.94.6,1.85,1.36,2.29,1.79,1.03,2.69,3.13,4.31,4.04,5.1,2.85,5.54,7.94,6.59,12.69,1.13,5.14-2.69,8.4-7.61,6.64-4.51-1.61-9.11-2.79-13.85-3.47-2-.29-3.21-1.97-4.67-3.14-4.9-3.88-9.74-7.83-14.55-11.82-1.38-1.14-2-1.03-2.19.8-.71,6.66-1.68,13.31-2.07,19.99-.2,3.4-.58,6.77-.82,10.12-.52,7.15-1.42,14.3-.75,21.59.44,4.74-.17,9.79-2.72,14.2-.36.61-.91,1.13-1.43,1.63-4.49,4.27-11.03,5-15.13,1.71-3.49-2.8-3.77-6.88-4.18-10.82-.6-5.87-.1-11.74.39-17.61.11-1.37.41-2.5,1.76-3.1,1.27.31,1.58,1.33,1.81,2.43.58,2.71,1.27,5.42.53,8.21-.02,1.51-.05,2.99-.68,4.45-.51,1.18-.15,2.28,1.09,2.93.37.44.48.94.38,1.49-1.19,1.78-.95,4.53.48,5.8.41.36.96.48,1.19.09,1.24-2.11,3.82-2.67,5.21-4.62.78-1.1.87-2.35,1.18-3.56.78-3,3.59-5.17,3.45-8.54,1.72-2.09.78-4.35.42-6.58.22-1.47-.28-2.91-.21-4.37.67-3.19.35-6.64,2.51-9.45.45-.59.62-1.51.33-2.06-1.25-2.33-.23-4.42.45-6.56,0-.48-.07-.96-.25-1.41-.21-1.31-.85-2.6-.26-3.97.39-1.19.8-2.37,1.62-3.35.18-.17.36-.34.51-.53.91-1.58-.98-2.55-.84-4.05.35-3.65.36-7.35.85-10.95.58-4.37,3.58-3.96,7.39-1.46,1.5.98,3.45,1.82,4.33,3.85.41.95,1.95.63,3.02.71.54.11.99.36,1.39.73,1,1.14,1.58,2.8,3.52,2.73,1.22.25,1.79,1.36,2.71,2,.94.92,1.91,1.79,3.34,1.82.47.21.76.65,1.21.88,2.01,1.48,3.94,3.01,5.55,4.98,1.74,2.13,4.46,2.46,6.97,3.07.35.07.69.16,1.03.25,1.13.3,2.31,1.42,3.42.19,1.04-1.16-.08-2.32-.32-3.48,0-.25.02-.5.04-.75.13-1.56-.1-2.99-1.51-3.97-.19-.17-.35-.37-.48-.59-.24-.66,0-1.61-.67-1.98-2.21-1.19-3.03-3.66-4.92-5.11-2.52-2.03-4.07-4.86-6.07-7.33-.35-2.06-1.64-2.89-3.54-3.82-3.37-1.64-6.08-4.46-8.59-7.25-1.37-1.52-2.72-2.53-4.7-2.76-.92-.51-1.63-1.3-2.49-1.91-2.09-2.27-1.86-5.8-4.29-7.91-.26-.23-.39-.66-.69-.81-4.13-2.05-5.69-5.68-6.18-9.98-.42-4.84-1.32-9.6-2.07-14.4-.2-1.27-.25-2.68,1.72-2.58.39.02.49.16.51-.43.12-4.28.35-8.47-.85-12.77-1-3.57-.26-7.5.17-11.26.8-1.28,1.5-2.63,2.65-3.66,1.27-1.14,2.93-1.47,3.7.02,1.44,2.76,4.43,3.45,6.34,5.49.03.16.06.32.09.48.97,2.84,3.03,4.91,4.98,7.06,1.1,1.22,1.75,2.72,2.48,4.16.32.64.35,1.48,1,1.88,3.26,2.03,5.62,5.38,9.49,6.51.91.27,1.67.71,2.13,1.55.4.74.92,1.44,1.63,1.78,2.93,1.41,4.66,4.04,6.73,6.33,2.11,1.74,3.88,3.68,4.34,6.56.2,1.29,1.02,2.23,2.17,2.94,3.51,2.14,6.83,4.55,9.83,7.37.27.25.58.41.97.33,1.93-.21,1.42,2.02,2.74,2.69,2.17,1.09,4.28,2.29,6.53,3.23,1.4,2.47,1.39,4.9.78,7.74-1.14,5.27-1.07,10.65,1.42,15.66.97,1.95.49,4.05,1.02,6.01-.09,3.45.54,6.91,0,10.36-1.54,2.95.25,5.87.13,8.81-.03.62.09,1.4.38,2.06-.75,3.83-.19,7.66.01,11.48-1.07,2-1.3,4,.07,5.97.2.36.4.73.6,1.09,2.43,4.51.92,9.25.54,13.85-.19,2.34.64,4.64-.05,6.92-.49,2.14-1.9,4.33.31,6.33.53.1,1.1.29,1.33.74.57,1.11.75-.1,1.12-.14,1-.33,1.99-.03,2.94.12,3.68.6,6.44-2.12,5.96-5.96-.95-2.26.37-4.37.6-6.52.41-3.83-1.06-7.34-1.08-11.04,1.76-2.3.68-5.01,1.06-7.52.53-3.52,1.8-6.74,3.54-9.72.51-.02-.02-.52.15-.21.07.12,0,.13-.16.17-1.24.35-2.09-.26-2.17-1.36-.14-1.95-.49-3.99.77-5.78,1.42-2.02,2.25-4.08,1.03-6.56-.48-.98.07-2.13-.07-3.2-.3-2.3-.46-4.63-1.75-6.66.06-.36.13-.71.19-1.07,1.29-1.33.39-2.3-.54-3.27Z"/>
    <path class="cls-2" d="m248.99,103.92c-.72-.29-1.16-.75-1.01-1.59-1.03-1.81-3.32-1.55-4.66-2.85-2.18-2.11-4.86-2.05-7.59-1.72-.98.12-1.87.31-2.74.97-2.38,1.83-5.32,2.44-8.16,3.06-1.09.24-1.62.51-1.79,1.55-.36,2.21-1.8,3.48-3.81,4.18-1.47.51-2.75,1.35-4.07,2.14-4.83,2.86-6.56,2.29-8.7-2.81-.37-1.48-.75-2.89-.25-4.49.53-1.66-.48-3.14-1.19-4.58-.32-.64-1.08-1.27-.67-1.93,1.68-2.72.02-4.79-1.17-6.98-.59-1.16-.46-2.43-.52-3.66-.03-.46.05-.9.22-1.33,1.14-2.7.94-5.08-1.64-6.89-.11-.25-.16-.51-.15-.78,1.21-2.65.4-4.9-1.29-7.05-1.68-2.14-3.56-4.11-5.24-6.24-1.62-2.06-5.02-2.07-6.98.03-1.91,2.05-3.56,4.33-5.35,6.49-1.41,1.7-2.09,3.81-1.12,6.11.49,1.15.12,2.42-.18,3.47-1.52,5.19-.8,10.43-.56,15.65.06,1.39-.16,2.71-.3,4.04-.47,4.46,1.42,8.65,1.37,13.07-.01,1.22.22,2.42-.01,3.7-.39,2.1-1.17,4.25-.06,6.39.12.24.19.57.09.8-1.41,3.49-1.13,7.19-1.58,10.81-.25,2.03-.56,3.9.16,5.8.82,2.16.69,4.26-.06,6.37-.42,1.19-.86,2.35-.88,3.67-.03,1.81-1.16,3.06-2.72,3.77-2.74,1.26-4.69,3.29-6.22,5.81-1.55,2.56-4.06,4.1-6.33,5.84-2.1,1.62-4.04,3.32-5.46,5.56-1.99,3.16-4.74,5.59-7.61,7.86-1.83,1.45-3.06,3.42-4.79,5-3.09,2.82-6.86,4.71-9.79,7.71-1.81,1.86-4.23,3.13-5.24,5.76-.36.94-1.27,1.5-2.17,1.99-1.5.82-2.53,2.02-2.89,3.73-3.8,3.91-8.41,6.8-12.79,9.97-4.47,3.23-7.21,7.77-9.86,12.39-1.11,1.92-.38,3.92.49,5.73,1.1,2.29,2.49,4.43,4.66,5.9,1.08.73,1.9,1.66,2.45,2.84.6,2.99,1.22,5.92,4.99,6.56.65.11,1.37.75,1.64,1.36,1.01,2.31,2.91,3.77,4.56,5.54,4.23,4.53,8.33,9.16,12.91,13.38,2.08,1.91,4.03,3.83,6.55,5.17,1.03.55,1.96.86,3.08.64,2.69.89,7.42,5.13,8.27,7.38,0,.27-.17.66-.06.78,1.68,1.76,2.31,4.51,4.33,5.72,1.95,1.16,4.3,2.23,6.85,1.59.17-.04.35,0,.54.02,2.34,1.61,5.45,2.35,6.41,5.55,2.1,3.16,3.57,6.89,6.8,9.1,1.8,1.23,3.28,2.44,3.91,4.56.33,1.1,1.69,1.36,2.06,2.45.46,2.59.2,5.18-.03,7.76-1.15,2.25-1.03,4.73-1.26,7.15-.57,6.02.91,11.89,1.18,17.84.32,7.02.99,14.04-.36,21.03-.2,1.05-.58,1.9-1.72,2.19-1-.23-1.69-.91-1.8-1.84-.4-3.3-1.41-6.63-.32-9.95.42-1.27.38-2.2-.45-3.26-.92-1.18-1.53-2.75-1.06-4.1,1.41-4.09-.41-8.52,1.54-12.55.38-.79.24-2.04-.07-2.94-1.2-3.49-.51-6.85-.11-10.39.62-5.57-.19-11.01-4.75-15.33-3.65-3.46-7.16-7.1-10.22-11.14-1.53-2.02-3.69-2.98-6.33-3.27-2.99-.33-5.58-1.92-7-4.64-3.16-6.04-8.02-9.9-14.4-12.03-.67-.22-1.38-.57-1.86-1.06-3.4-3.42-7.07-6.56-10.03-10.41-2.15-2.8-5.19-4.75-7.58-7.38-1.22-1.34-2.68-2.4-3.2-4.25-.1-.34-.25-.81-.51-.94-3.73-1.88-4.89-6.18-8.08-8.55-2.63-1.95-4.09-4.81-5.76-7.48-2.93-4.71-.41-8.82,1.47-13.07,2.86-6.44,7.84-10.62,13.8-13.96,1.87-1.05,3.47-2.74,4.83-4.23,3.09-3.39,7.63-5.56,8.99-10.57.64-2.37,3.04-3.79,4.84-5.43,8.25-7.5,16.53-14.95,24.47-22.8,2.23-2.21,4.53-4.49,6.82-6.66,2.83-2.67,5.8-5.05,8.8-7.5,2.4-1.96,1.99-5.54,2.17-8.43.17-2.74.54-5.88.01-8.2-.91-4,.55-7.3,1.04-10.86,1.28-9.35-.44-18.62-.3-27.92.07-4.76-.4-9.63.76-14.36.24-.99.16-1.95-.07-2.95-1.61-6.97,2.52-14.7,9.2-17.38,1.43-.57,2.77-1.39,4.23-1.86,4.8-1.54,8.19-.23,10.68,4.27,1.19,2.14,2.17,4.37,3.69,6.33.53.69,1.04,1.73.92,2.51-.56,3.81,1.29,7.42.81,11.18-.33,2.58.11,4.78,1.24,7.23,1.83,3.95,1.8,8.47,2.56,12.76.22,1.23-.11,2.5,1.67,2.95,1.69.42,2.73.13,3.51-1.5,2.37-4.96,7.2-6.39,11.78-8.33,3.39-1.44,7.06-1.46,10.47-2.63.89-.31,1.78.1,2.66.33,4,1.05,5.92,4.61,8.54,7.26,1.06,1.07,1.01,2.88-.04,4.31Z"/>
    <path class="cls-3" d="m228.43,133.93l5.91-5.04c4.19-1.02,6.94-4.05,9.76-6.99.75-.78,1.3-2.12,2.8-1.24-.08,4.2-1.06,8.02-4.48,10.84-.64.53-1.31,1.07-2.16,1.06-5.5-.08-8.55,3.05-10.99,7.62-1.39,2.61-3.27,5.18-6.07,6.67-.7.37-1.16.75-1.41,1.5-1.08,3.18-3.5,4.45-6.69,4.56-4.39.15-5.13.98-5.24,5.37-.26,11.2-.57,22.39-3.59,33.32-.65,2.33-.26,4.86-.6,7.3-.24,1.68.9,2.35,2.43,1.25,3.78-2.72,6.88-6.07,9.02-10.25.08-.16.09-.42.22-.49,4.14-2.4,4.77-8.89,11.09-9.01,2.61-.05,4.4-2.86,5.79-5.03,2.02-3.17,5.74-4.79,7.25-8.34,3.81-.03,3.59-3.67,5.21-5.69,1.6-1.99,3.03-4.12,5.86-5,1.73-.54,3.21-2.34,4.46-3.86,1.14-1.39,2.07-2.94,3.42-4.18.36-.33.7-1.03.6-1.45-1.03-4.47,1-8.85.07-13.4-1.16-5.69-2.3-11.34-5.12-16.45-1.81-3.28-.41-6.77,1.32-8.49,2.63-2.61,2.98-5.44,2.85-8.36-.14-3.23,1.25-6.19.97-9.35-.07-.81.13-1.83-.28-2.4-2.64-3.65-1.26-7.89-1.86-11.83-.39-2.56.69-4.93,1.34-7.39.77-2.94,1.94-5.71,2.78-8.57,1.34-4.58,4.59-6.96,8.4-9.02.31-.17.82-.41,1.01-.28,2.35,1.59,4.54.47,6.82-.22,1.17-.35,2.41.19,3.33.92,3.5,2.78,6.91,5.67,7.37,10.58.09.99.64,1.59,1.33,2.25,2.07,1.95,4.71,3.68,3.32,7.25-.08.21.02.58.17.77,3.18,4.16,1.16,8.37,0,12.48-.6,2.12.28,3.92.42,5.86.16,2.26,1.11,4.82-1.89,6.13-.64-.49-.38-1.28-.69-1.97.4,1.06.27,2.03-.05,2.99-.12.23-.3.41-.51.56-1.28.49-2.39-.09-2.56-1.22-.64-4.23-1.35-8.51.25-12.71,2.81-2.9,3.23-5.44,1.49-8.94-.8-1.61-1.63-3.11-1.22-5.12.29-1.39-.9-2.46-2.08-3.24-.83-.55-1.51-1.3-2.34-1.86-1.04-1.49-.48-3.41-1.33-4.95-.41-4.01-2.39-5.21-5.93-3.58-1.12.52-2.26.75-3.41.18-1.61-.81-2.77-.31-3.71,1.11-.51.77-1.2,1.35-2.09,1.68-.43.16-.89.37-1.02.83-1.04,3.93-3.46,7.31-4.5,11.23-.6,2.26-.24,4.31,1.77,5.83.42.53.67,1.15.53,1.78-1.03,4.74-.34,9.55-.59,14.32-1.54,2.19-.55,4.68-.9,6.93-.55,3.52.48,6.98-.51,10.51-.83,2.96-.82,6.38-.21,9.38.66,3.27,1.2,6.49,1.49,9.81.31,3.6,1.7,7.11.52,10.8-.36,1.12.73,2.01.89,3.08.37,3.33-.57,5.79-3.44,8.03-5.15,4.02-9.56,8.88-13.98,13.74-6.81,7.48-14.15,14.47-21.12,21.81-2.91,3.06-6.26,5.53-9.48,8.19-1.55,1.16-2.92,2.63-4.31,3.81-3.15,2.66-6.29,6.04-10.97,6.08-1.77.02-2.77-1.15-3.01-2.92-.01-6.07,1.15-12.13.21-18.22-.14-.91.17-1.78.61-2.58,1.43-1.74,2.29-3.66,1.88-5.98-.12-.65-.03-1.32.31-1.84,3.06-4.58,2.03-9.43,1.12-14.34-.54-2.92.12-5.66,2.49-7.64,2.16-1.81,3.57-4.99,7.25-4.21,1.47.54,2.05-.27,2.15-1.54.21-2.57.74-4.75,4.09-4.37.46.05.92-.23,1.15-.63,1.72-2.98,4.59-5.04,6.34-8,.08-.14.3-.18.48-.22Z"/>
    <path class="cls-2" d="m289.5,199.76c-1.43-6.83-.82-13.76-1.03-20.65.52-1.9.71-3.92,2.06-5.51,1.95-3.58,4.51-6.69,7.06-9.84,1.72-2.13,2.58-4.99,4.91-6.64,3.45-2.45,5.68-5.92,8.13-9.21.86-1.15,2.31-1.38,3.38-2.2,1.87-1.69,3.47-3.65,5.19-5.48,4.26-4.53,9.1-8.42,13.63-12.64.43-.4.93-.53,1.46-.63,1.33-2.04,4.59-2.37,4.8-5.41,1.68-.93,2.47-2.76,3.94-3.91.68-.54-.37-.8-.39-1.26,1.26-.81,1.47-2.59,2.93-3.22,1.33.43,1.91-.65,2.71-1.32.63-.53,1.11-1.61,2.24-.81.71,2.16,1.25,4.34,1.1,6.66-.17,2.62-.81,4.78-3.64,5.73-2.08.7-2.66,2.86-3.87,4.4-.33.42-.46,1.26-.82,1.36-4.91,1.35-6.73,6.6-11.24,8.63-4.64,2.09-8.25,5.68-10.7,10.27-.21.4-.32.97-.65,1.17-4.81,2.9-7.27,8.35-12.36,11.06-2.33,1.24-3.01,4.39-4.55,6.59-1.82,2.6-3.71,4.93-6.35,6.88-2.4,1.78-5.38,3.64-6.17,6.71-.77,2.98-.1,6.15,1.48,8.95.65,1.15.87,2.3.64,3.64-.46,2.68.11,5.33.3,8.01.28,4.04-.15,8.14-.49,12.2-.35,4.17.2,8.3.24,12.46.03,2.48-.48,5,.32,7.47.14.44-.01,1.24-.34,1.54-2.36,2.16-1.81,4.47-.68,7,.79,1.77.48,3.49-.88,5.05-1.05,1.2-1.09,2.85-1.37,4.36-.86.29-1.73.67-2.54-.12,0-2.66-1.24-5.46.83-7.92.3-.36.4-.92.1-1.27-1.93-2.33-.27-4.62,0-6.93.78-1.23,1.43-2.38.17-3.79-.68-.76-.22-1.86-.22-2.81.35-3.12.98-6.49.44-9.33-1.24-6.52,1.56-12.83.24-19.22Z"/>
    <path class="cls-2" d="m343.94,98.5c-2.6-1.16-5.15-.87-7.89-.21-3.07.73-5.66,2.46-8.63,3.39-1.88.59-3.28,1.96-4.39,3.96-1.8,3.26-4.36,6.24-7.51,8.28-3.82,2.48-7.67,4.94-11.7,7.11-1.85.99-3.36,2.69-4.87,4.23-2.74,2.78-5.84,5.12-8.86,7.56-1.04-.99-1.13-1.04-.51-2.17,1.17-2.12,1.51-3.85-.31-6.08-1.95-2.39-2.33-5.48-.57-8.36.62-1.02.42-1.91,0-2.82-.57-1.24-.51-2.44-.06-3.68.57-2.53,1.23-5.1,1.22-7.66,0-1.99.69-3.01,2.35-3.68l-.06.04c1.58.09.34,1.63,1.11,2.14-.17,2.34.65,4.67.08,7.03-.15.63.08,1.35.67,1.68,2.99,1.65,2.88,4.31,2.4,7.12-.13.74-.83,1.74.16,2.19.9.41,1.55-.58,1.84-1.25,1.65-3.85,5.95-4.37,8.59-6.97,1.41-1.39,2.77-2.89,4.83-3.38.17-.04.41-.13.46-.27,1.54-3.89,5.65-5.4,7.92-8.54,1.29-1.78,2.97-3.96,4.63-3.85,3.49.22,6.33-1.91,9.58-1.82,3.68.1,5.9,3.34,8.98,4.8.3.14.36.79.53,1.2Z"/>
    <path class="cls-56" d="m181.44,364.94c.7-6.09,1.82-12.08.79-18.33-.58-3.5-.13-7.22-.45-10.84-.51-5.79-.16-11.59-.25-17.39-.01-.92.3-1.55,1.06-2.01,1.47.56,1.3,1.89,1.26,3-.12,3.69.82,7.38-.08,10.25-.01-.56-.41-2.32,1.58-2.44,1.78-.11,1.77,1.57,1.72,2.81-.09,2.04.48,3.88.99,5.82.94,3.59.82,7.36.25,10.97-.3,1.85-.63,3.73-.9,5.6-1.12,7.69-1.85,15.43-1.26,23.19.29,3.81.13,7.57.03,11.36-.09,3.37.58,3.66,3.49,2.27.79-.38,1.61-.94,2.55-.3.62.67.45,1.52.5,2.32.14,3.86-3.11,5.19-5.45,7.13-.75.62-1.76.07-2.47-.57-1.26-1.14-1.34-2.49-.63-3.96.13-.45.16-.87-.34-1.13-1.04-1.23-.76-2.7-.56-4.05.19-1.24.18-2.41-.05-3.6.5-3.75-.83-7.24-1.56-10.81.28-3.11-1.42-6.17-.2-9.3Z"/>
    <path class="cls-7" d="m289.59,294.08c-.07,1.1-.14,2.19-.21,3.29-1.45-.87-2.85-1.79-3.7-3.33,1.06-2.15-.96-4.63.76-6.75-1.4.54-.78,2.27-1.83,2.96-.46.14-1.06.18-1.03-.42.14-2.73-1.07-5.41.15-8.27.33-.77.11-2.59-.03-3.92-.53-5.11-1.14-10.23.76-15.22,2.08,1.77,3.56,3.77,3.69,6.72.21,4.91-.43,9.88.79,14.73.18.71-.35,1.18-.5,1.77q.7-1.43.21-3.43c-.57-2.29-.29-4.65-.52-6.97-.08-.8.28-1.4,1.15-1.57,1.34.3,1.51,1.29,1.53,2.44.01.75-.55,1.59.24,2.26-.39.49-.27.98.02,1.46-1.39.23-.36,1.06-.35,1.58.09,3.84.24,7.68.37,11.52-.6.24-1.18.52-1.5,1.13Z"/>
    <path class="cls-2" d="m291.05,278.38c-1.16.35-.96-.48-1.05-1.15-.15-1.08-.38-2.15-.58-3.23-.85-.51-1.07-1.32-1.1-2.23,1.05-3.48-.17-7.22,1.34-10.73.57-1.33.51-3.2-.12-4.78-.46-1.16-.49-2.15,1.02-2.51,3.01,2.49,3.43,4.32,1.68,7.76-.41.81-1.1,1.6-.58,2.5,2.69,4.64.64,9.09-.43,13.59-.06.26-.12.53-.18.79Z"/>
    <path class="cls-2" d="m241.46,121.79c1.67-2.56,3.4-5.09,4.99-7.71.83-1.36-.38-3.3,1.12-4.53.07-.06.35,0,.42.1.09.13.06.33.08.5.06.06.13.12.19.19q2.51,3.36,4.11-.34c1.65,2.49,1.14,3.79-2.5,6.38-2.31,1.54-3.77,3.95-5.81,5.78-1.31,1.18-1.58,1.18-2.6-.38Z"/>
    <path class="cls-43" d="m241.46,121.79c2.57.83,3.07-1.83,4.58-2.78,1.3-.82,1.74-2.9,3.83-2.62-.98,1.42-1.97,2.85-2.96,4.27-2.53,2.31-4.89,4.77-6.6,7.76-.19.33-.43.78-.74.64-1.73-.75-3.52.87-5.22-.17,2.37-2.37,4.75-4.73,7.12-7.1Z"/>
    <path class="cls-52" d="m290.56,253.75c-.59.78-.53,1.41-.14,2.42.88,2.29,1.37,4.74-.68,6.85-.2.21-.31.71-.2.97.96,2.4.29,4.77-.11,7.14-1.43.12-1.23-.98-1.34-1.82-.57-4.65-.62-9.31-.25-13.97.11-1.43-1.1-3.06.53-4.3.74-.54,1.44-.41,2.11.13-.17.87-.78,1.75.08,2.59Z"/>
    <path class="cls-2" d="m346.91,112.04c-.66-.49-1.31-1.01-.77-1.95,1.12-1.95,1.13-4.09,1.17-6.23.25.1.48.23.74.31,4.33,1.39,4.67,2.09,2.99,6.27-.37-.27-1,.09-1.42.44-.76.63-1.14,2.35-2.7,1.15Z"/>
    <path class="cls-15" d="m346.91,112.04c2.71-.7,2.84-2.49,2.07-4.74-.14-.4-.97-1.08.26-1.41,1.17-.32.69.62,1,1,.87,1.09-.11,2.53.8,3.56-.17.19-.35.39-.52.58-1.16.95-2.29,1.94-3.49,2.83-.8.59-1.53.7-1.46-.7.45-.37.89-.74,1.34-1.11Z"/>
    <path class="cls-59" d="m293.27,100.56c-1.22-.27.11-1.86-1.11-2.14.2-1.02.47-1.95.18-3.09-.3-1.15-.88-2.64.71-3.93.12,2.12.22,4.02.33,5.91-.04,1.08-.07,2.16-.11,3.24Z"/>
    <path class="cls-2" d="m287.83,387.6c.16-1.21-.35-2.6.93-3.51-.02,1.25.27,2.58-.93,3.51Z"/>
    <path class="cls-54" d="m284.56,318.61c-1.98-.16-2.95.89-3.27,2.73-.27,5.33-.23,10.65.42,15.95.28,2.28.17,4.55-.19,6.76-.64,3.84-.12,7.75-.94,11.56-.15.7.25,1.87-1,1.91-1.17.03-1.41-.96-1.54-1.89-.76-5.15-.57-10.29.39-15.39.38-2,.62-3.9-.14-5.83-.45-1.16-.15-2.31-.06-3.49.15-1.99-.61-3.71-1.85-5.23v-6c.45-2.18.45-4.36,0-6.54-.27-2.57-1.35-4.68-3.52-6.17-1.12-.77-1.73-1.85-1.9-3.17-.28-2.21-1.41-4.07-3.06-5.3-4.58-3.42-7.75-8.1-11.56-12.21-5.86-6.32-12.25-12.09-18.66-17.84-1.01-1.68-2.3-3.12-3.82-4.36-.91-.73-1.82-1.45-2.73-2.18-2.18-2.21-3.85-4.85-6-7.09-4.42-3.05-7.48-7.4-11-11.33-1.38-1.54-2.84-2.99-4.27-4.48-1.3-1.38-2.15-3.14-3.6-4.38-2.12-1.81-3.41-1.72-5.43.28-.92.91-1.94.61-2.97.28-.36-.36-.73-.73-1.09-1.09-2.03-.48-1.9.95-1.9,2.2,0,7.85.04,15.71-.02,23.56-.02,3.76.36,7.55-.26,11.3-1.22,1.82,1,3.63,0,5.45.76,2.69-.22,5.49.55,8.18-1,2.22-.11,4.45.27,6.56.46,2.59,1.22,5.21,2.46,7.61,2.42,2,3.17,5,4.59,7.6.09.16.16.4.08.53-1.76,2.68-2,6.36-4.96,8.19-1.45.89-2.29,1.92-2.74,3.48-.73,2.5-.77,5.05-.52,7.57.42,4.34.53,8.63-.44,12.91-.1.45,0,.9.11,1.35,2.26,9.56.79,19.05-.56,28.53-.22,1.54-.19,3.08-.34,4.61-.11,1.14-.34,2.3-1.69,2.44-1.43.15-2-.89-2.39-2.13-1.61-5.06-1.29-10.23-.86-15.39.57-6.77,2-13.56,1.45-20.32-.6-7.46-.7-15.01-2.47-22.36-.28-1.16-.36-2.34-.32-3.52.1-3.07-.32-5.93-2.45-8.4-.79-.92-1.56-2.1-1.73-3.36-.58-4.31-3.38-7.13-6.38-9.82-4.75-4.23-9.14-8.84-13.03-13.83-3.23-4.15-6.96-7.53-11.5-10.07-1-.56-1.73-1.25-2.37-2.16-1.27-1.8-2.84-3.29-4.75-4.42-3.03-1.79-5.12-4.57-7.37-7.17-.65-.76-1.13-1.76-.51-2.76.71-1.13,1.83-.92,2.94-.67,2.31.51,3.7,2.34,5.11,3.9,4.16,4.6,8.81,8.64,13.84,12.19,5.22,3.68,9.5,8.38,14.26,12.55,2.32,2.04,4.8,3.87,7.2,5.81,1.7,1.38,3.77,1.25,5.69,1.3,1.55.05,1.54-1.53,1.53-2.71-.02-2.61-.42-5.17-.18-7.85.91-10.29,1.28-20.6.41-30.93-.56-6.62.08-13.24.65-19.82.64-7.28-.02-14.5-.54-21.72-.33-4.63-.45-9.23.04-13.85.3-2.88.42-5.74-.43-8.63-.85-2.9-.29-5.95-.16-8.93.06-1.29-.29-1.6-1.5-1.46-2.78.34-5.27.83-7.72,2.71-2.67,2.05-5.76,3.61-8.55,5.64-3.64,2.65-6.06,6.41-9.49,9.25-5.72,4.73-11.38,9.59-16.43,15.04-5.93,6.4-12.8,11.75-19.09,17.74-2.81,2.68-4.99,6.02-8.38,8.1-1.7,1.04-3.34,1.68-4.76-.3-1.17-1.63-.37-3.44,1.63-4.96,2.69-2.06,5.79-3.91,5.64-8.06-.04-1.02.86-1.77,1.61-2.45,4.43-4.05,8.19-8.71,12.13-13.2,3.79-4.31,8.23-7.94,12.41-11.82,7.3-6.79,14.67-13.51,22.22-20.03,1.93-1.67,3.65-3.45,5.05-5.61.78-1.2,1.81-2.22,3.37-2.58,4.83-1.13,4.83-1.16,5.6-5.88.19-.99,1.23-1.26,1.71-2.03,1.94-3.04,4.1-5.98,2.78-9.97-.36-1.08-.12-2.33-.07-3.5.27-2.37.52-4.75.15-7.13.39-6.78,1.45-13.49,1.87-20.26.32-5.04.2-9.97-.61-15-.5-3.12.2-6.5.11-9.76-.13-4.58-.25-9.15-.1-13.74.06-1.91.12-3.69,2.28-4.43,1.72-.59,5.25.65,6.39,2.15.92,1.2,1.4,2.61,1.47,4.04.15,2.79.68,5.56.31,8.4-.36,2.72.14,5.48.76,8.1,1.11,4.7.84,9.4.59,14.1-.27,4.96-.48,9.95-.53,14.88-.04,3.86.93,7.88,1.64,11.79.44,2.44,2.21,2.89,3.88,1.11,4.58-4.9,9.07-9.88,13.53-14.89.13-.25.27-.5.41-.74,5.15-2.17,8.5-6.4,12.1-10.41,1.07-1.19,1.89-2.35,2.22-3.89.62-.74,1.28-1.24,2.16-.34,2.13,1.05,4.81,1.25,5.71,4.12.35,1.13.58,2.05-.23,3.03-2.24,2.71-4.32,5.56-7.24,7.66-2.35,1.7-3.91,4.24-6.24,6.01-.99.75-1.81,1.74-2.99,2.28-1.03.47-2,1.17-2.22,2.27-1.13,5.59-5.94,7.67-9.89,10.58-5.22,3.84-9.46,8.38-10.63,15.09-.27,1.53-.48,3.07-2.18,3.81-.36.16-.84.7-.79,1,.52,3.34-2,6.11-1.52,9.53.63,4.51-.77,8.79-2.72,12.83-1.07,2.21.3,4.52-.48,6.7.43,2,.43,4,0,6-.73,3.74-.3,7.37,1.09,10.9.58,2.51.74,5.09,1.09,7.63v.55c.92,1.52.95,2.78-.49,4.17-1.07,1.04-.6,1.93,1.04,1.82.79-.76,1.5-1.57,1.64-2.73.21-.16.49-.43.69-.36,4.7,1.62,7.18-2.1,10.31-4.24.15-.1.29-.2.44-.3,1.45-1.27,2.91-2.54,4.36-3.82,3.86-2.22,6.6-5.79,10.09-8.46,1.85-1.42,3.87-2.6,5.61-4.16.65-.58,1.44-.77,2.24-.26.77.49,1.11,1.27.77,2.1-.36.88-.5,1.71-.17,2.61-2.66,2.67-5.14,5.57-8.74,7.09-.55-.46-1.35-.63-1.7-.1-2.11,3.17-6.23,3.41-8.64,6.09-2.12,1.24-2.42,3.82-4.12,5.5,1.58-1.46,3.5-.81,5.21-1.14,6.99-6.55,14.93-11.92,22.58-17.61,2.96-2.2,5.2-5.2,8.5-6.92.93-.54,1.79-.34,2.39.45.7.92-.04,1.74-.5,2.46-.94,1.47-2.37,2.55-3.78,3.44-4.18,2.64-7.82,5.96-11.74,8.91-7.36,4.17-12.97,10.52-19.59,15.62-.8.62-1.49,1.31-1.67,2.37-.98,1.93-.32,3.5,1.09,4.91.57,2.28,1.84,4.18,3.27,6,.75.6,1.64.95,2.22,1.85,1.68,2.58,3.29,5.29,6.5,6.33,3.88,3.76,7.6,7.7,11.67,11.23,6.38,5.55,10.85,12.75,16.68,18.74.74,1.38.55,3.11,1.64,4.36.9.55,1.63,1.28,2.18,2.18.47.41,1.13.51,1.58.96,3.79,2.77,7.42,5.73,10.54,9.26,1.2,1.35,2.4,2.45,4.38,1.33.45-.25,1.05.09,1.49.44,1.37,1.47,2.49,1.5,3.27-.55,2.27-1.95,2.19-1.98,3.82,1.09.25,1.78.51,3.52.29,5.38-.3,2.51.67,4.74,2.61,6.55,2.18,2.04,4.07,4.36,5.28,7.14.87,1.25,2.04,2.27,2.77,3.62.7,1.29.41,2.45-1.04,2.71-1.65.29-3.09,2.27-5,.76Z"/>
    <path class="cls-47" d="m181.53,153.46c.61,3.76.06,4.9-3.31,6.73-.46.25-1.15.67-1.48.5-2.5-1.29-3.46.64-4.53,2.14-2.76,3.89-6.49,6.86-9.96,9.98-3.57,3.21-6.89,6.69-10.56,9.8-5.39,4.57-10.58,9.39-15.55,14.41-4.46,4.5-8.49,9.42-12.74,14.13-.72.8-1.62,1.44-2.44,2.14-.77.66-1.69,1.36-1.33,2.48.62,1.94-.46,3.06-1.65,4.25-1.6,1.6-2.96,3.42-5.14,4.36-1.47.64-1.25,1.9-.71,3.01.68,1.39,1.62.61,2.49.1,1.43-.83,2.68-1.9,3.72-3.15,4.38-5.25,9.73-9.45,14.8-13.95,2.56-2.27,5.04-4.63,7.34-7.2,2.7-3.03,5.77-5.77,8.87-8.41,4.06-3.46,8.3-6.82,11.94-10.62,3.22-3.35,6.71-6.3,10.09-9.42,1.03-.95,2.1-1.7,3.45-2.07,1.06-.3,2.09-.7,2.86-1.51,1.82-1.92,4.25-2.57,6.66-2.71,1.56-.09,2.6-.33,3.06-2.06,1.61,2.95.95,5.84.8,8.65-.08,1.56-.21,3.15.26,4.58,1.08,3.32.76,6.62.38,9.96-.44,3.8-.51,7.65-.1,11.42,1.21,11.04,1.17,22.05,0,33.09-.37,3.55.11,7.2.22,10.8.03.91.15,1.81.17,2.71.29,9.95.14,19.89-.98,29.8-.25,2.21.4,4.5.4,6.76,0,2.98-1.01,3.35-3.96,2.93-5.16-.73-8.68-4.13-12.07-7.36-5.53-5.27-11.36-10.08-17.41-14.72-3.6-2.76-7.25-5.66-10.24-9.27-1.86-2.24-3.82-4.88-7.88-5.11,2.5,3.51,4.88,6.5,8.17,8.58,2.12,1.34,3.72,3.11,5.35,4.96,1.84,2.07,4.24,3.59,6.74,4.65,2.58,1.09,3.84,3.41,5.24,5.28,5.21,6.92,11.48,12.79,17.61,18.8,2.04,2,3.29,4.33,3.57,7.14.16,1.54.74,2.83,1.9,3.79,1.6,1.32,2.4,3.08,2.38,5.01-.09,7.11,1.92,13.97,2.36,21.02.5,8.01.62,15.95-.42,23.97-.84,6.52-1.73,13.17.28,19.72.2.66.05,1.75.96,1.71.97-.04.75-1.11.72-1.77-.25-4.59,1.18-8.97,1.73-13.46.53-4.34-.06-8.65.38-12.96.14-1.34-.42-2.89-1.04-4.15-1.39-2.84-.12-5.62.22-8.29.52-4.04-.48-7.94-.22-11.92.14-2.12.54-4.13,1.18-6.12.29-.9.74-1.85,1.69-1.99,2.01-.28,3.01-1.13,2.9-3.3-.03-.69.53-1.74,1.13-2.08,2.3-1.3,1.54-2.91.73-4.6-.91-1.87-2.21-3.55-2.68-5.64h.55c.95-.18,1.43.28,1.93,1.09,2.82,4.63,6.42,8.69,9.79,12.91,1.98,2.49,4.74,4.17,7.3,6.02,3.07,2.22,3.96,5.01,2.36,8.26-.48.97-1.29,1.24-2.27,1.04-.81-.16-1.56-.54-2.18-1.08-2.93-2.54-5.24-5.77-8.53-7.93-.21-.14-.29-.46-.44-.68-.58-.87-.25-2.34-1.55-2.7-1.27-.34-1.48,1.14-2.31,1.6-.24.13-.46.29-.73.36-.98.27-2.25-.62-2.96.68-.84,1.53-1.29,3.17-1.35,4.93-.1,2.91.32,5.79.44,8.69.32,7.9-1.04,15.71-1.25,23.56-.13,5.15-1.26,10.28-.48,15.45,1.21,4.96-.33,9.84-.46,14.77-.04,1.64-1.7,2.59-2.52,3.91-.62.99-.9-.51-1.3-.94-.58,2.21-3.38,2.23-4.24,4.31-.23.56-1.34-.23-1.54-.95-.51-1.82-1.42-3.52-1.32-5.52.45-8.32-.75-16.7.02-24.92.46-4.92.62-10.06,2.17-14.9.2-.62.26-1.21.2-1.86-.34-3.78.6-7.68-1.25-11.33-.9-1.79.39-3.88-.47-6.13-1.91,2.2-.69,4.66-1.53,6.76-1.09-5.98-1.3-11.99-1.36-18.02-.01-2.51-.02-5.01-.03-7.52-.64-1.31-1.26-2.61-1.04-4.14.09-.65-.02-1.38-.55-1.75-3.09-2.19-4.49-6.23-8.36-7.58-1.16-.4-1.77-1.5-2.47-2.45-1.63-2.18-4.11-3.1-6.39-4.33-1.78-1.75-4.61-1.77-6.21-3.73-1.63-2.01-4.7-2.61-5.41-5.51-2.53-2.2-5.05-4.39-7.58-6.59-3.11-1.36-5.79-3.36-7.98-5.91-4.66-5.4-10.21-9.91-15.18-14.99-1.25-1.28-2.9-2.19-3.73-3.93-.4-.83-1.23-1.56-1.93-1.83-3.16-1.23-4.51-3.99-6.08-6.61-1.25-2.32-4.19-2.97-5.36-5.41-.69-1.43-1.64-2.74-2.33-4.17-1.7-3.54.28-6.41,1.95-9.25,1.7-2.9,3.8-5.52,6.4-7.69,1.32-1.11,2.53-2.42,4.02-3.25,3.86-2.15,6.84-5.42,10.49-7.8,3.83-3.66,7.43-7.57,11.41-11.09,3.01-2.65,6.2-5.08,9.19-7.76,7.07-6.34,14.09-12.75,21.58-18.61,3.86-3.02,6.97-6.84,10.66-10.05.99-.86,1.8-1.8,3.26-1.46.24.12.45.29.62.5Z"/>
    <path class="cls-46" d="m279.65,292.45c-1.2-.61-2.08-2.35-3.82-1.09.44-.92.8-1.97.48-2.9-1.69-4.81-.49-9.69-.48-14.54-.13-3.45,1.97-6.9,0-10.36-.47-8.3-1.07-16.6-1.38-24.91-.26-7.14-.19-14.28-.26-21.42-.75-2.13.2-4.41-.55-6.54,0-5.96-.17-11.93.06-17.89.15-3.94-.74-7.71-1.2-11.54-.23-1.92-1.5-1.83-2.77-1.13-1.36.75-2.76,1.34-4.27,1.68-.55.36-1.17.52-1.59-.08-.3-.44.13-.77.5-1.01,1.13-2.4,3.48-3.98,4.36-6.54.7-.95.1-1.57-.55-2.18-1.42-1.98-.96-7.65.88-9.82,1.02-1.2,1.91-2.43,2.25-3.98.17-.79.32-1.68-.53-2.22-.74-.47-1.39-.03-1.97.44-.83.67-1.62,1.75-2.77.66-1.03-.98-.2-2.01.19-2.99,1.08-2.71,2.41-5.23,4.81-7.05.97-.74,1.73-1.79,1.75-2.98.07-3.68,1.53-7.3.5-11.01-.66-2.38.46-4.67.34-7.02-.42-8.01.91-15.99.52-24.01-.04-.81-.05-1.66-.29-2.41-2.94-9.05-1.19-17.79,1.72-26.45.52-1.54,1.09-3.04,2.58-.59.22.36.69.58,1.08.8,1.13.63,3.05.5,3.09,2.21.04,2.02.53,4.17-.87,6.05-1.01,1.35-1.29,3.01-1.26,4.65.06,3.89-.24,7.77.39,11.67.38,2.39.1,4.86-.16,7.31-.51,4.69.47,9.37.5,14.07.02,2.47.21,4.94.33,7.41-.45,1.82-.45,3.63,0,5.45.22,2.09-.68,4.48,1.64,6,2.39.34,4.67,1.61,7.23.38.88-.42,2.23-.23,2.56,1.25.19,1.27.85,1.14,1.66.56,4.21-2.33,6.57-6.51,9.81-9.81,3.49-1.06,5.91-3.79,8.87-5.69.88-.63,1.43-1.82,2.78-1.64,1.83.24,1.81,1.17.89,2.42-3.04,3.05-5.35,6.8-8.96,9.31-1.36.94-2.14,2.41-3.04,3.77-.37,1.87-1.97,2.48-3.37,3.31-.33.18-.71.25-.99.5-5.35,3.72-9.13,9.19-14.46,12.93-1.14.8-1.67,1.85-2.05,3.06-.23.73-.99,1.59-.04,2.19,1.06.68,1.81-.06,2.49-.9,1.41-1.76,2.97-3.39,4.8-4.75.31-.22.67-.4.94-.04.5.68-.13,1.14-.39,1.67-.46.55-.88,1.17-1.4,1.66-6.27,5.83-8.06,13.39-8.26,21.53-.07,2.71-.56,5.37-.66,8.09-.23,6.67.81,13.27.35,20.01-.44,6.51-.27,13.18-.13,19.75.09,4.47-.71,8.98.16,13.5.44,2.32.11,4.9-.38,7.26-.94,4.57-.15,9.15-.44,13.71-.14,2.2-.59,4.38-.34,6.7.67,6.44,1.01,12.93.45,19.42-.13,1.48-1.39,2.57-1.35,4.09Z"/>
    <path class="cls-45" d="m195.4,371.55c-.76-1.91-.48-3.96-.28-5.84.76-6.95.65-13.95,1.26-20.88.63-7.2-.08-14.3-.26-21.44-.06-2.38,1.03-4.38,2.06-6.4.08-.16.27-.44.3-.42,2.73,1.19,3.61-1.68,5.44-2.42,1.96-.8,2.95.45,3.15,2.15.19,1.64.99,2.55,2.33,3.38,2.03,1.25,3.42,3.23,5.01,4.97,1.13,1.24,2.42,2.15,4.41,2.97-.74-2.15,1.28-4.03-.08-5.72-1.16-1.44-2.83-2.52-4.4-3.55-4.85-3.17-7.94-7.84-11.03-12.54-1.54-2.33-3.25-4.55-4.88-6.82.58-4.98-.86-9.7-1.86-14.47-1.43-6.85-.5-13.72-.02-20.55.28-3.99-.33-7.9-.07-11.86.26-3.94.04-7.92.39-11.84.23-2.62,1.64-3.27,4.1-2.31.92.36,1.58.14,2.25-.38.62-.47,1.11-1.37,2.05-.58.93.78.46,1.57.04,2.43-.27.55-.27,1.22-.39,1.84-1.05.66-2.25.46-3.38.54-.15.77.06,1.4.28,1.97.72,1.85.89,3.59-.47,5.26-.32.4-.6.93-.28,1.51.18.57.97.77.82,1.58-.7,3.65-1.08,7.21-.02,10.99.71,2.5.61,5.37.1,8.06-.24,1.29-1.05,2.64.88,3.45.29.12.17,1.19.25,1.83-.88-.17-1.31.69-1.94.88-.47.14-.58-.75-.6-1.31-.01-.35.01-.73-.87-1.03,1.19,5.52,2.2,10.85,2.43,16.28-.12.25-.1.53-.18.79-1.7,5.45.73,9.38,4.66,12.76,1.31,1.12,2.43,2.4,3.52,3.74.6.73,1.08,2.03,2.52,1.48,1.51-.5,1.3,1.08,1.96,1.61,3.49.95,4.88,4.39,7.52,6.37,1.57,1.18,2.91,2.68,4.11,4.3.59.8,1.26,1.75,2.89,1.15,1.41-.53,2.09,1.39,3.13,2.17,1.91,2.4,3.83,4.8,5.74,7.19,1.15,2.52,3.09,4.46,4.75,6.6,0,.77.31,1.48.47,2.22-.02.52-.26.99-.42,1.47-1.85,1.04-2.78.59-4.07-1.98.44.62.37,1.56,1.2,1.95.66.32.95.84.71,1.55-.25.71-.86.91-1.53.9-1.43-.01-2.89.3-4.16-.79-.75-.65-1.78-.88-2.72-1.23-1.67-.76-2.19-2.45-3.1-3.75q.15,1.57-1.31,1.69c-.38-.18-.76-.36-1.14-.53-1.23-.57-2.45-1.15-3.74-1.59-.9-.58-1.05-1.86-2.13-2.25-1.64-.42-2.94-1.31-3.86-2.74-.14-.52-.6-.5-1-.57-4.77-2.66-8.28-6.75-11.97-10.63-.6-.63-.91-1.55-1.93-1.89-1.55,2.71-.75,5.68-.83,8.48-.13,4.26-1.16,8.44-1.13,12.67.02,3.45-1.81,6.55-1.46,10.03.08.81.25,1.54.45,2.3-1.13,4.64-1.22,9.42-1.85,14.12-.33,1.09-.16,2.52-1.85,2.67Z"/>
    <path class="cls-2" d="m267.02,231.97c.06.72.13,1.43.19,2.15.21.5.44,1,.18,1.55-2.29.68-3.82-.29-4.03-3.01-.16-2.01-.61-3.72-2.04-5.15-.25-.25-.54-.63-.48-.95.9-4.82-2.42-9.29-1.26-14.04.61-2.48,2.3-4.65,1.53-7.48-.27-.99-.34-1.39-1.5-1.67-3.02-.74-5.82-1.33-8.18,1.5-.51.61-1.54.41-2.34.56-4.98.93-8.92,3.48-11.49,7.86-1.51,2.58-3.98,4.19-5.84,6.4-.47.56-1.02,1.04-1.49,1.59-3.08,3.58-2.95,6.92.47,10.35,1.28,1.29,2.7,2.46,4.21,3.42,2.62,1.66,4.63,3.77,5.78,6.65.96,2.41,3.04,3.92,4.91,5.35,2.33,1.79,4.61,3.77,6.18,6.03,2.2,3.18,4.04,6.62,6.51,9.67.94,1.16.69,2.78-.55,3.96-.79.54-1.62.6-2.34.25.92.4,2.07.8,2.6,1.99.35.78.52,1.62-.15,2.28-.71.71-1.48.39-2.22-.09-1.92-1.25-3.67-2.79-4.88-4.67-1.19-1.85-2.59-3.45-4.04-5.05-1.45-1.61-2.77-3.31-3.13-5.6-.19-1.17-1.21-2-2.08-2.76-.71-.61-1.29-1.25-1.61-2.12-.34-1.68-2.04-2.3-2.84-3.62-.63-4.02-2.38-7.11-6.05-9.38-2.84-1.76-4.89-4.59-6.51-7.7-.9-1.72-2.63-3.05-3.85-4.68-1.24-1.65-1.22-3.56.62-3.89,2.69-.48,3.88-2.35,5.3-4.13,2.34-2.93,6.14-4.65,7.17-8.66,4.02-4.12,8.88-7.25,13.24-10.98,1-.85,2.43-.47,3.67-.61,2.15.68,3.04-1.25,4.2-2.27.88-.77,1.77-1.56,2.75-2.14,2.24-1.32,4.07-.68,5.47,1.51,1.07,1.67,1.53,3.68,3.01,5.1.39.37.74,1.08.52,1.49-2.22,3.98,1.69,9.06-2.38,12.78-1.05.97-.85,2.51.65,3.47,2.06,1.33,2.39,3.03,1.01,5.09-.52.77-.93,1.89-.21,2.54,2.31,2.09,1.33,4.67,1.35,7.12Z"/>
    <path class="cls-60" d="m264.47,94.47c-.46-5.1-1.09-10.21.31-15.28.07-.26-.28-.63-.43-.95-.84-3.73-.04-7.05,2.57-9.87.38-.41.88-.78.88-1.31-.06-3.11,2.34-4.97,3.68-7.36.73-1.3,2-2.26,3.35-1.58,1.8.91,3.35,1.39,5.25.38.59-.32,1.52-.05,1.82.74.37.97-.52,1.18-1.13,1.51-.17.77-.73,1.24-1.33,1.66-1.71,1.19-2.65,2.84-3.44,4.74-.52,1.25-.31,3.25-2.44,3.48-.14.01-.31.44-.34.69-.65,6.23-3.98,12.06-2.82,18.55.72,4.04-.88,7.99-.34,12.03.5,3.73,1.26,7.43,1.2,11.22-.02,1.06.1,2.25-1.27,2.15-1.23-.09-.9-1.24-.86-2.17.07-1.52.04-3.06-.09-4.59-.06-.66-.22-1.63-1.18-1.53-.79.09-.66.96-.71,1.57-.2,2.8-.39,5.6-.58,8.39-1.47,1.54-2.11.01-2.07-.88.22-4.49-.82-9.02.4-13.47.1-.37.1-.71-.04-1.05-.95-2.32-.79-4.7-.38-7.09Z"/>
    <path class="cls-35" d="m314.56,146.42c-2.83,2.12-5.05,4.76-6.78,7.84-1.05,1.86-3.18,2.54-4.66,4.01-2.56,2.54-3.77,5.97-6.28,8.52-2.23,2.26-3.78,5.05-5.28,7.83-2.95-2.41-3.46-5.37-1.6-9.25,2.9-4.31,7.18-7.35,10.35-11.45,1.92-2.48,4.97-4.16,6.88-6.72,2.42-3.24,4.88-6.43,7.84-9.19.82-.76,1.24-2.19,3-1.81.66.14-1-1.84.9-2.05,1.13-.12,1.28,1.65,1.79,1.08,1.65-1.86,4.43-2.73,5.02-5.55.08-.38.55-1.01.81-.99,3.79.28,4.64-3.31,6.73-5.18,1.95-1.75,4.55-2.48,6.31-4.42,2.07,1.01.69,2.02,0,3.03.24.71.48,1.68-.23,1.99-1.92.84-2.86,2.87-4.78,3.65-1.94-2.05,1.23-2.3,1.21-3.47-2.04,2.51-4.48,4.89-7.12,7.03-4.5,3.65-8.13,8.18-12.36,12.1-.83.77-1.51,1.8-1.75,3Z"/>
    <path class="cls-58" d="m267.02,235.74c.06-.54.13-1.09.19-1.63,1.14.82,1.02,2.03,1.02,3.21,0,2.13,0,4.26.44,6.39.99-3.43.41-6.96.79-10.38.39-3.54,1.27-7.06,1.61-10.66.86,2.07.95,4.21,1.16,6.41.27,2.82,1.21,5.62,1.19,8.51-.02,3.42.14,6.84-.02,10.28-.14,3.01-.93,6.26.62,9.24.16.3.24.73.16,1.06-1.15,5.3.83,10.58.07,15.88-.19,1.34-.31,2.69-.53,4.03-.11.67-.08,1.6-1.15,1.5-.77-.07-1.04-.76-1.03-1.4.04-1.86-1.23-3.29-1.38-5.11-.77.36-.73.97-.91,1.45-1.92.53-1.75-.89-1.9-2.02-.86-9.74-1.42-19.49-1.37-29.27,0-1.54-.18-3.08-.11-4.62.05-1.08-.02-2.22,1.14-2.87Z"/>
    <path class="cls-36" d="m207.72,106.59c.9,3.87,2.11,4.06,5.63,2.42,2.14-.99,3.66-3.19,6.47-3.15,1.1.02,1.99-1.54,1.96-3.17-.05-2.63.69-3.05,3.22-2.23.33.11.68.18,1.01.27.8-3.46,6.19-.06,6.46-4.33,0-.11.29-.3.42-.28,4.1.66,8.87-1.1,12.02,3.01.92,1.21,2.96,1.28,3.07,3.2-3.34-1.2-6.68-2.3-10.29-1.18-2.44-.23-4.56-.21-6.58,1.9-1.95,2.04-4.69,3.32-6.64,5.5-2.5,2.8-4.87,5.72-7.31,8.57-1.33,1.55-3.1,2.65-4.38,4.26-.72.3-1.55.35-2.04,1.12-.87,1.38-1.98,1.25-3.17.44-.76-.62-1-1.43-.85-2.37,1.97-2.06.96-4.14-.21-6.01-1.48-2.36-.37-4.74-.4-7.1-.01-.66.68-1.29,1.6-.86Z"/>
    <path class="cls-47" d="m313.45,125.66c-1.07.97-2.18,1.9-3.19,2.93-1.7,1.72-3.6,2.7-6.08,1.97,4.18-6.73,10.06-11.84,16.14-16.74,3.03-2.45,6.11-4.85,9.23-7.19,2.32-1.74,6.9-1,7.7,1.16.88,2.38-1.21,7.14-3.76,7.67-2.22.47-3.72,1.32-4.88,3.29-.74,1.25-2.41,1.99-3.82,1.57-1.61-.48-1.51-1.94-.94-3.4.35-.88-.45-1.05-1.13-.99-1.26.11-1.91.91-2.18,2.09-1.17,2.06-3.28,3.11-4.99,4.56-1.02.87-2.27,1.44-2.09,3.07Z"/>
    <path class="cls-37" d="m267.02,231.97c-.84-2.27-.67-4.83-2.89-6.7-.98-.83-.13-2.79.84-3.95,1.01-1.2.88-2.02-.46-2.83-2.61-1.59-3.16-3.91-1.15-6.08,1.78-1.92,2.36-3.73.95-6.06-.73-1.19.02-2.3.52-3.32.67-1.36,1.36-2.5-.63-3.48-.98-.49-.8-1.95-1.26-2.92-1.71-3.67-4.07-3.87-7.12-1.03-1.34,1.25-2.64,3.22-5.08,2.59-.4-.48-.43-1.09-.11-1.52,2.36-3.09,4.91-6.01,8.53-7.68,1.42-.66,5.82,1.06,5.96,2.46.23,2.37,1.97,3.06,3.56,4.02.04,3.25.11,6.5.11,9.75,0,6.51-.06,13.03-.04,19.54,0,2.56-.82,4.89-1.75,7.21Z"/>
    <path class="cls-11" d="m268.7,195.47c-2.39.88-4.4-.21-4.69-2.56-.26-2.11-3.88-3.68-5.67-2.52-1.75,1.13-3.06,2.62-4.26,4.3-.92,1.3-2.2,2.34-3.32,3.5-.96.46-1.71,2.53-2.99.38-1.04.69-2.31,1.19-3.09,2.1-2.91,3.36-6.71,5.72-9.76,8.91-3.33,3.54-7.32,6.34-10.82,9.68-1.87,1.78-4.03,2.9-6.55,3.39-1-.92-1.8-1.47.24-2.48,2.75-1.35,4.24-4.3,6.62-6.28,6.11-5.1,12.73-9.49,19.06-14.26,3.73-2.82,7.06-6.16,11.04-8.66,3.82-2.4,7.69-4.7,11.55-7.05.48-.29.97-.5,1.66.03-1.2,1.97-4.05,2.22-4.83,4.53,1.64.44,2.28-1.35,3.66-1.76,1.77-.53,2.16-.04,2.17,1.48.01,2.43,0,4.87-.01,7.3Z"/>
    <path class="cls-60" d="m292.22,98.38c-.66.99-1.37,1.53-.96,3.32.6,2.58-1,5.38-1.81,8.04-1.15.37-1.59-1.46-3-.86-.56.24-.41-.96-.43-1.55-.23-5.73.47-11.47.02-17.18-.18-2.29.85-4.81-.88-6.92.83-6.73-1.02-13.15-2.23-19.65-.21-1.13-.78-2-1.66-2.7,1.9-2.79,2.29-2.79,3.85.03,2.03,1.02,1.4,2.67,1.03,4.27,1.33,1.75,1.63,3.79,2.17,5.88.6,2.33.96,4.93,2.44,7.07,1.66,2.39.64,4.83-.15,7.22-.07,3.18-.75,6.37.32,9.54.16.47-.36,1.15-.46,1.75-.24,1.37.23,2.1,1.75,1.75Z"/>
    <path class="cls-50" d="m239.91,250.92c2.41,2.16,5.05,4.09,6.13,7.42.34,1.05,1.21,2.06,2.09,2.77,3.5,2.85,4.87,7.66,9.37,9.57-.93-2.46-3.64-3.59-4.88-5.95,1.78-.26,2.74,2.35,4.69,1.49.23-.12.48-.17.74-.16,2.19.84,2.51,3.46,4.4,4.58.61.47.96,1.15,1.44,1.72.98,1.1,2.39,1.89,2.56,3.58.69,1.75,1.82,3.29,2.41,5.08.05.13.11.25.14.38,0,.04-.09.11-.14.16-.99.95-1.4,2.77-3.38,2.18-2.33-.99-3.47-3.35-5.48-4.74-.98-.68-.65-1.56,0-2.35,1.6-.39,2.35.93,3.07,1.37-.7-.47-1.48-1.74-3.07-1.37-1.41-.56-2.61-1.49-4.14-1.9-1.6-.42-1.64-2.45-2.97-3.56-4.03-3.37-6.84-7.89-9.81-12.2-.34-.5-.69-1.23-.58-1.76.41-1.99-.54-3.24-1.97-4.35-.65-.5-.68-1.23-.62-1.97Z"/>
    <path class="cls-46" d="m284.56,318.61c1.07-.01,2.09-.07,3.1-.65,1.65-.94,3.17-1.62.97-3.65-.61-.56-.55-1.84-.8-2.79,1.21.54,2.6.82,3.27,2.18.86,1.45,2.68,1.22,3.82,2.18,2.7,2.26,5.42,4.51,8.1,6.79.48.41,1.02.85,1.26,1.4,2.19,5.04,6.29,8.55,9.89,12.46.6.65,2.11,1.28,1.21,2.3-.94,1.06-2.28.25-3.08-.62-5.92-6.38-12.93-11.51-19.52-17.13-1.7-1.46-3.47-2.61-5.88-1.59-.95.4-1.77-.02-2.34-.88Z"/>
    <path class="cls-40" d="m285.12,60.9c-1.28-1.17-2.56-1.83-3.85-.03-.17-.04-.34-.08-.51-.12.22-.39.72-.87.62-1.14-.27-.75-.88-.05-1.32-.03-.44.01-.92.47-1.28.83-1.31,1.32-2.3,1.94-3.26-.46-.66-1.66-2.01-1.41-2.77.07-.51.98-1.34,1.85-1.34,3.12,0,.38-.11,2-1.39.63-.11-.12-.81,1.53-.6,2.12.75,2.07-.29,3.28-1.9,3.82-1.29.43-1.49,1.25-1.47,2.16.07,2.32-1.17,4.24-1.7,6.37-2.62-2.44-2.97-4.37-1.39-7.64,1.23-2.55,1.36-5.63,3.65-7.68.27-.24.23-.42.03-.65-2.42-2.79.94-2.51,1.9-3.2.69-.49,1.57-.42,1.71-1.64.17-1.47,2.7-2.73,3.88-1.88,1.63,1.18,2.87,1.26,4.56-.02,2.93-2.22,4.65-.24,6.03,2.44.43.83.29,1.94.41,2.93Z"/>
    <path class="cls-29" d="m285.16,83.23c1.63-.15,1.42,1.2,1.43,2.02.02,7.38-.05,14.75-.09,22.13,0,.32-.04.65-.07,1.08,1.31-.31.39-1.55,1.08-1.93,2.15.18,1.27,2.16,1.96,3.22.1.49,1.44.5.5,1.41-.29.29-.68.94-.56,1.12,1.64,2.46-.29,4.68-.37,7.01-.08,2.54.7,4.71,3.15,5.88,1.09.52.89,1.06.47,1.92-.92,1.88-1.71,3.82-2.56,5.74-.71,1.25-1.96,1.6-3.22,1.96.4-3.8.32-4.17-1.24-5.01,2.36-.88,2.97-2.23,1.25-4.14-.92.12-.28,1.46-1.2,1.56-.39-.09-.31-.34-.3-.6.15-3.46.31-6.92.42-10.39.02-.68,0-1.38.82-1.41,1.15-.05-.28,1.18.58,1.35.89-1.87.9-1.89-.75-1.94-.82-.02-.72-.43-.71-1.06.02-1.79-.07-3.59-.19-5.39-.12-1.67.55-3.45-.76-4.96-.44-.51,0-1.32.09-1.69,1.35-5.5-.14-11.08.56-16.58.05-.41-.18-.86-.28-1.3Z"/>
    <path class="cls-36" d="m214.21,149.7c-5.25.85-8.15,3.88-8.52,8.39-.04.54-.31,1.21-.08,1.59,1.82,3.04.39,6.5,1.29,9.7.34,1.22-.22,3.19-1.1,4.14-1.51,1.63-1.95,3.35-1.94,5.38.01,1.52-.91,2.7-1.47,4.02-1.81-.44-1.75-1.84-1.55-3.2.16-1.07.51-2.1.1-3.18-.05-.39-.06-.78-.05-1.16.83-1.94.58-3.85-.2-5.73-.22-.69,1.06-.96.45-1.89-.27-.42-.71-1.81.92-1.32.04-.9.44-2.01.06-2.66-3.28-5.55.79-8.05,4.21-11.11,2.19-1.95,3.84-4.51,5.73-6.79,1.3-.48,2.51-.57,3.4.77.55,1.42.15,2.44-1.27,3.04Z"/>
    <path class="cls-37" d="m217.54,222.62c.18-.4.27-1.05.57-1.18,6.18-2.58,10.07-8.3,15.8-11.48.31-.17.67-.27,1-.4-1.9,3.73-4.75,6.66-7.92,9.31-.32.27-.57.71-.67,1.12-.48,1.87-1.58,2.75-3.55,2.43-.75-.12-1.5.07-1.91.75-.49.82.19,1.32.72,1.81,2.87,2.69,3.95,6.63,6.75,9.41,1.38,1.37,2.89,2.45,4.53,3.37,3.95,2.22,5.34,5.24,4.22,9.55-4.28-4.23-7.98-8.95-11.48-13.81-1.69-2.36-4.5-3.82-5.37-6.81-.05-.16-.2-.42-.3-.42-2.68,0-2.6-1.78-2.38-3.65Z"/>
    <path class="cls-39" d="m288.38,251.03c1.22,5.63.25,11.34.57,17.01.06,1.05-.38,2.17.49,3.09,0,.96,0,1.92-.01,2.88-.96,2.77-.53,5.59-.39,8.87.26-.65.31-.9.45-1.08.45-.59.52-.07.53.23.02.63.16,1.38-.11,1.88-.85,1.54-1.05,3.11-.69,4.84-1.82-7.23-1.95-14.57-2.27-21.95-.13.38-.15.89-.42,1.12-.33.28-.82-.16-.76-.42.45-1.93-1.5-3.23-1.3-5.07.04-2.89.09-5.78.13-8.66.03-.36.16-.71.07-1.08-.12-.49-.52-1.13.29-1.33.79-.2,1.16.34,1.21,1.08.06.81.05,1.63.04,2.45-.25-6.48-2.37-13.02.62-19.39.67-.71,1.46-.9,2.37-.53.11.1.21.2.32.31-.09,2.18-1.1,4.37.91,6.43.79.81.96,2.71-1.09,3.11-1.02.2-.78.81-.64,1.42.37,1.64.08,3.23-.31,4.81Z"/>
    <path class="cls-44" d="m286.65,337.67c2.51,2.13,3.12,4.88,2.57,7.98-.1.55-.32,1.18.12,1.54,2.84,2.34,1.03,4.75-.27,6.65-1.51,2.21-1.06,4.38-1.22,6.62,1.41.35.56-1.23,1.46-1.28.07.21.18.44.22.67.34,1.9-.59,3.53-1.13,5.24-1.09,3.45-2.83,6.73-2.03,10.59.25,1.18-.84,2.13-1.72,2.93-.75-.69-.42-1.5-.23-2.29-.28-4.46-.29-8.92-.27-13.39.02-3.19-.87-6.39-.69-9.65.12-2.17,1.6-3,3.94-1.91-.28-4.34.58-8.68-1.17-12.82-.09-.2.27-.59.42-.89Z"/>
    <path class="cls-36" d="m264.47,94.47c1.45,2.35,1.66,5.33,1.3,7.59-.57,3.51.05,6.87-.17,10.29-.07,1.14-.08,2.28-.12,3.42-.03.75-.08,1.53,1.09,1.19-.24,1.43-.83,2.85-.02,4.28-.76,3.47.04,6.94.04,10.4.17,3.34.79,6.66.52,10.02-.08,1.04.35,2.16-.44,3.1-2.1-.9-3.62-1.62-1.85-4.55.91-1.51,1.44-4.04.06-6.25-.67-1.07-.98-2.66-.78-3.91.46-2.87-1.23-5.22-1.48-7.83-.38-4.03-1.18-8.2.65-12.11.59-1.26-.56-1.99-.41-3.24.28-2.4,1.26-4.86.32-7.38-.71-1.89.21-3.52,1.31-5.02Z"/>
    <path class="cls-39" d="m241.52,282.14c-2.11-2.56-5.34-3.63-7.73-5.77-3.59-3.19-7.91-5.32-11.6-8.33-1.26-1.03-2.65-1.76-2.94-3.87-.37-2.62-2.74-4.84-4.36-6.39-1.91-1.84-1.74-3.25-1.71-5.15.42.34.98.6,1.23,1.03,2.72,4.84,7.45,7.73,11.16,11.61.54.57.87,1.48,2.25.86,1.03-.46.14,1.19.92,1.9,2.02,1.85,4.24,3.52,6.27,5.35,2.86,2.59,4.93,5.64,7.13,8.67-.17.24-.37.27-.6.09Z"/>
    <path class="cls-49" d="m284.42,376.32c.08.76.15,1.52.23,2.29,2.19,5.69,1.82,11.55,1.1,17.42.13,1.45-1.02,1.66-1.98,2.17-2.67,1.44-5.32,2.93-8.03,4.31-.46-.32-.23,1.71-1.09.31-.18-.29-.97-.21-1.48-.3-1.8-2.3-1.38-4.96-1.25-7.58.66-3.95,1.01-7.86.96-11.92-.03-2.94-.3-5.88-.29-8.83.68.38.89,1.1,1.68,1.75v-11.31h.95c0,1.53.18,3.1-.04,4.61-.53,3.61-.57,7.24-.42,10.85.08,1.99-.91,3.65-1.12,5.55-.37,3.3.36,6.47.57,9.7.05.78.34,1.31,1.08,1.72,2.43,1.36,6.47-.07,7.08-2.75.41-1.82,2.63-3.45.8-5.6,2.7-3.88-.7-8.15.8-12.11.05-.14.29-.2.44-.3Z"/>
    <path class="cls-53" d="m287.17,235.81c-.82,6.49-.16,13.05-.85,19.53-.09.85.57,1.77-.56,2.95v-6.99c-1.1,1.02-.32,2.1-1.18,2.46-1.33-3.6-.56-7.42-1.08-11.12-.27-1.93-.62-3.98-.47-6.04.12-1.63.26-3.15,1.09-4.56.18-.31.83-.5-.05-.91-1.5-.7-.83-2.51-.33-2.85,1.67-1.14.84-2.52.92-3.87.24-4.28-.25-8.69,1.99-12.66,1.28.13,1.65,1.06,1.64,2.12-.04,4.22.99,8.5-.82,12.62-.6,1.36.37,2.41.92,3.53.08.25.1.5.09.76-.66,1.62-1.42,3.22-1.3,5.04Z"/>
    <path class="cls-13" d="m287.91,230.31c-2.55.75-2.28-1.17-1.96-2.42.69-2.74,1.53-5.43,1.31-8.31-.2-2.61-.4-5.22-.6-7.83.52-3.33,1.78-6.58,1.23-10.04-.19-1.23,1.3-1.11,1.62-1.94,2.89,1.83,1.87,4.78,1.59,7.14-.33,2.75-1.04,5.77-.84,8.27.17,2.16.51,4.51.29,6.64-.24,2.29.8,4.69-.49,6.88-.72.53-.76,1.96-2.14,1.62Z"/>
    <path class="cls-30" d="m201.45,203.62c.6,1.71,1.51,1.71,3.3,1.4,3.3-.57,5.74-2.69,8.15-4.4,1.45-1.02,3.33-2.96,4.06-5.33.94-.3.77,1.33,1.68,1.25-3.99,5.23-9.08,9.15-14.74,12.39-.6.35-1.09.75-1.83-.04-1.2-1.3-1.51-.06-2.11.94-1.7-7.09-3.4-14.14-2.67-21.52.24-.18.26-.44.32-.7.2-.77-.59-2.1.86-2.16,1.44-.06,2,1.1,2.06,2.4.15,3.17.11,6.35.08,9.53-.02,2.1-.57,4.32.83,6.26Z"/>
    <path class="cls-46" d="m276.38,325.7c1.28.57,2.87,1.42,2.58,2.8-.92,4.37,1.16,8.58.05,13.08-1.03,4.2-.97,8.75-.42,13.16.09.76.02,1.66,1.24,2.04.49-2.11.68-4.21.96-6.31,1.15-8.58-.47-17.14-.05-25.71.06-1.16-.19-2.37.55-3.42v4.91c.76,1.76-.22,3.69.55,5.45v4.91c.43,2,.43,4,0,6-.51,4.62-.05,9.31-.97,13.91-.33,1.64-.03,3.22.97,4.62.38.86.04,1.57-.51,2.21-.56.66-.97,1.68-2.07,1.37-1.08-.31-1.47-1.23-1.5-2.3-.08-2.25,1.06-4.54-.28-6.74v-.55c-.45-4.18-.45-8.36,0-12.54,1.12-5.73-.05-11.31-1.09-16.9Z"/>
    <path class="cls-4" d="m201.45,203.62c-1.41-.28-1.32-1.4-1.51-2.48-.74-4.11-.49-8.27-.75-12.41-.04-.65,1.07-1.89-.56-2.13-1.35-.2-.48,1.44-1.33,1.7-.59-5.16,1.99-9.82,2.33-14.84,1.36.46,1.2,2.03,2.06,2.85.85,1.12.41,2.38.37,3.6-.03,1.02-.47,2.08.33,3.01-1.21,3.24.07,6.53-.18,9.81-.15,2.04.2,4.06-.78,6.04-.49.98-.51,2.34.43,3.21,1.02.95-.43,1.06-.41,1.63Z"/>
    <path class="cls-48" d="m289.51,298.38c2.16.49,2.79,2.7,4.33,3.88,2.85,1.13,3.95,3.84,5.5,6.13.56.83.96,1.95,1.96,2.14,2.75.52,3.75,2.52,4.51,4.82h0c2.09,1.22,2.88,3.22,3.27,5.46,1.17.94,2.38,1.77,3.46,2.9,1.14,1.19.77,1.97.44,3.04-2.01-1.81-3.04-4.73-5.51-5.87-5.38-2.47-7.28-7.8-10.64-11.95-1.86-2.29-4.21-4.19-6.3-6.31-1.17-1.19-2.56-2.4-1.01-4.26Z"/>
    <path class="cls-36" d="m271.41,334.43c-.25-4.08-3.63-6.98-4.01-11.1-.37-4.05-1.08-8.04.7-11.93.97-2.12-.34-4.26.09-6.39,1.66.77,2.21,2.11,2.26,3.9.14,5.73.34,11.45.6,17.17.12,2.78.9,5.53.37,8.34Z"/>
    <path class="cls-2" d="m241.52,282.14c.2-.03.4-.06.6-.09,2.63,1.24,4.31,3.55,6.22,5.58.93.99,1.73,2.05,3.35,1.65.61-.15,1.12-.2,1.14.88.08,4.25,3.52,6.31,6.08,8.93-2.66-.52-4.51-2.6-6.93-3.63-.86-.36-1.54-1.2-2.48-1.59-3.03-1.28-4.88-3.35-5.29-6.81-.22-1.84-1.41-3.49-2.7-4.92Z"/>
    <path class="cls-12" d="m313.46,345.9c-1.97-.75-3.02-2.54-4.41-3.93-2.66-2.64-6.1-4.2-8.9-6.63-.75-.65-1.56-1.24-2.01-2.17,1.07-.65,1.7.16,2.28.79,3.41,3.73,8.22,5.49,11.98,8.84.66-.87-.45-1.02-.19-1.62.96-.04,1.96.54,1.89,1.32-.15,1.65,1.07,1.56,1.86,1.64,1.41.13,2.79-.68,4.24.63.6.54,1.85-.68,2.31-1.66.54-1.15,1.37-1.31,2.45-.98,1.61,1.85.78,3.48-.38,5.16-1.06,1.54-2.24,1.85-4.17,1.48-2.57-.5-4.76-1.6-6.94-2.86Z"/>
    <path class="cls-47" d="m231.14,198.15c-.3-.55-.66-1.07-.9-1.64-.33-.77.82-1.93-.44-2.39-.92-.34-1.26.88-1.97,1.2-5,2.22-8.37,6.55-12.58,9.78-.81.62-1.55,1.25-2.64,1.23,5.16-5.04,10.5-9.88,16.45-13.99,1.89-1.31,4.48-.54,6.45-1.82,1.06-1.21,2.3-2.16,3.82-2.73.18-.18.36-.36.55-.55,1.18-.53,1.58-.02,1.18,1.06-.28.77-1.04,1.22-1.73,1.67-1.21,1.96-3.15,3.09-4.94,4.39-1.38,1-2.69,2.06-3.23,3.78Z"/>
    <path class="cls-31" d="m201.1,250.54c-1.35-.52-.72-1.64-.41-2.27.49-.97,1.03-1.73.04-2.68-1.1-1.06-.21-2.69-1.04-3.89-.26-.37-.06-1.09.71-1.14.88-.06,1.76-.12,2.64-.18-.05,1.77,1.69-.32,1.91.89-.08.25-.27.71-.24.73,2.38,1.21,2.2,4.61,4.36,5.6,1.82.83,2.71,2.13,3.68,3.56.19.28.23.66.33.99-2.69-.71-5.39-1.3-6.59-4.37-.51-1.3-2.8-.99-3.71.53-.49.82-.64,1.84-1.68,2.24Z"/>
    <path class="cls-25" d="m214.21,149.7c.55-1.08.61-2.23.56-3.41-.25-.41-.42-.95-.14-1.27,2.44-2.79,4.32-6.15,7.83-7.87.88-.69,1.75-1.34,2.87-1.72.51-.17,1.72,0,1.62-1.57-.07-1.16.95-.13,1.48.07-1.12,3.63-3.79,6.34-5.79,9.43-.63.97-1.95,1.57-3.3.82-1.31-.73-1.57,0-1.55,1.12,0,.63.08,1.27.04,1.9-.18,2.82-.74,3.19-3.62,2.5Z"/>
    <path class="cls-2" d="m313.46,345.9c1.73-.19,3.13.84,4.63,1.39,4.16,1.52,6.14.4,6.8-4.08.05-.36.03-.72.05-1.08-.44-2.97-3.43-3.93-4.82-6.15-.27-1.05.52-.92,1.11-1.01,4.46,1.84,4.9,6.15,5.65,9.96.61,3.09-2.85,5.34-5.96,4.6-2.79-.67-5.84-.63-7.47-3.62Z"/>
    <path class="cls-10" d="m289.97,165.37c.63,1.6,2.03,3.09.27,4.91-.48.5,0,1.36.59,1.87.77.66.77,1.56.74,2.46-1.1,1.2-1.88,2.32-1.64,4.24.27,2.19-.9.38-1.46.25-1.49-4.01-1.48-8.19-1.18-12.35.08-1.15,1.14-2.17,2.68-1.39Z"/>
    <path class="cls-21" d="m212.55,120.72c2.55-2.85,5.1-5.69,7.64-8.54,1.65-1.85,3.15-3.81,4.94-5.56,2.37-2.3,5.17-3.91,7.9-5.62,1.33-.84,3.13-.75,4.66.15-1.28.22-2.55.43-3.83.65-.8-.16-1.3.23-1.67.88-4.41,5.04-8.72,10.17-14.07,14.29l-.05.04c-1.31,1.88-3.23,3.16-4.77,4.82-.36.38-.78.4-1.23.16-.44-.64.08-.93.47-1.26Z"/>
    <path class="cls-47" d="m230.59,206.33c2.93-3.99,7.06-6.58,11.06-9.29,1.36-.92,2.69-1.83,3.7-3.12,1.16-1.49,1.21-2.68-1.12-2.86,1.73-.82,3.57-1.06,5.45-1.09.88,2.16-.84,2.59-2.18,3.27-2.05,2.53-4.55,4.45-7.21,6.35-2.24,1.6-4.34,3.46-6.64,5.02-.97.66-1.85,1.46-3.05,1.72Z"/>
    <path class="cls-5" d="m222.45,137.15c-1.64,3.82-5.24,6-7.69,9.14-.96.28-2.04,1.37-2.69-.41,2.05-3.16,4.71-5.78,7.48-8.31.91-.84,1.82-1.03,2.9-.42Z"/>
    <path class="cls-47" d="m213.15,215.59c-1.42.65-3.08.84-3.8,2.66-.32.8-1.41,1.26-2.34.81-1.13-.54-1.05-1.64-.7-2.6.97-2.75,3.72-3.62,5.76-5.23-2.26,3.07-2.11,3.65,1.09,4.36Z"/>
    <path class="cls-47" d="m194.61,271.19c0-10.77.04-21.54-.03-32.3-.02-2.59.11-5.02,1.99-7.04.45.69.12,1.51.22,2.28-1.99.51-1.62,2.15-1.62,3.54-.02,10.03,0,20.07-.02,30.1,0,1.16.2,2.37-.54,3.42Z"/>
    <path class="cls-47" d="m212.06,211.23c1.84-3.21,5.52-4.3,7.93-6.89.88-.94,1.79.06,2.41.9-2.42,3.78-6.68,4.36-10.34,5.99Z"/>
    <path class="cls-47" d="m313.45,125.66c-2.66-1.23-.33-2.66.27-3.02,2.37-1.4,4.14-3.7,6.81-4.62.61.6,2.62.51,1.09,2.18-.76-.24-1.62-.15-1.84.58-.64,2.12-2.43,2.6-4.16,3.24-.73.55-1.45,1.09-2.18,1.64Z"/>
    <path class="cls-47" d="m277.47,355.68c.86,1.24,1.22,2.58.89,4.09-.33,1.5-.94,3.43.83,4.06,1.97.71,1.77-1.74,2.64-2.7.83.53,1.14,1.23.38,2-2.18,2.21-3.07,4.99-4.11,7.96-.21-5.14-.42-10.27-.64-15.41Z"/>
    <path class="cls-16" d="m339.6,122.12c.4-1.01.54-2.02,0-3.03.39-1.6,1.17-2.77,3.04-2.72,1.23.51,2.26-2.49,3.33-.44.97,1.85-1.23,2.13-2.22,2.98-1.33,1.14-2.51,2.47-4.15,3.21Z"/>
    <path class="cls-46" d="m272.57,291.9c-3.36,1.72-5.27-.44-7.27-2.61-2.16-2.34-4.68-4.26-7.38-5.96-.89-.56-1.51-1.54-2.25-2.34,2.14-.64,2.9,1.46,4.36,2.18,1.23.74,2.04,1.99,3.27,2.73,1.22,1.31,2.45,2.61,3.65,3.93.97,1.06,2.02,1.76,3.55,1.24.89-.3,1.57.07,2.06.83Z"/>
    <path class="cls-34" d="m284.6,290.25c-.22-2-.44-4,.41-5.97,1.17.27-.36,3.04,2.17,2.02.48-.19.03,1.48-.04,2.29-.17,1.9-.17,3.85-1.47,5.45.04-1.38-.6-2.56-1.07-3.79Z"/>
    <path class="cls-46" d="m222.41,243.39c-3.17-.28-5.48-1.62-6.31-4.94-.34-1.38-1.58-2.18-2.41-3.24,2.12.2,2.71,2.45,4.36,3.27,1.48.7,2,2.36,3.27,3.27.36.55.73,1.09,1.09,1.64Z"/>
    <path class="cls-2" d="m265.45,276.12c-.15-.93-.33-1.86-1.55-1.88-1.19-.02-.93-.69-.68-1.38,1.45-2.16,2.6-2.29,5.44-.58.58.65-1.31,1.95.6,2.25-.14.34-.28.68-.42,1.01-.89,1.56-2.17.89-3.39.58Z"/>
    <path class="cls-12" d="m265.45,276.12c1.06-.57,2.22-.6,3.39-.58.25,1.82.94,3.64.03,5.46-1.71-1.23-3.67-2.28-3.41-4.88Z"/>
    <path class="cls-12" d="m265.48,283.74c1.2-.62,1.75-2.23,3.38-2.18,1.02,1.88.79,3.99,1.24,6.2-1.88-1.15-2.74-3.2-4.62-4.02Z"/>
    <path class="cls-47" d="m197.88,235.22c.88-.05,1.75.05,2.53-.64,2.52-2.19,4.76-2.11,6.88.39,1.03,1.21,2.1,2.47,2.58,4.07-1.08-.68-1.9-1.62-2.67-2.62-2.15-2.8-3.36-2.99-6.3-1.12-1.02.65-2.03.58-3.02-.07Z"/>
    <path class="cls-2" d="m271.92,355.66c-1.83-2.53-.95-5.67-1.85-8.42-.3-.93.51-1.83,1.34-2.44.17,3.62.34,7.24.51,10.87Z"/>
    <path class="cls-47" d="m275.84,263.56c.64.74,1.28,1.48,1.92,2.22.42.49.96,1.32.5,1.64-2.37,1.64-1.45,4.41-2.42,6.49v-10.36Z"/>
    <path class="cls-47" d="m292.19,140.37c-.35-.93-1.24-1.36-1.96-1-2.79,1.43-4.94-.45-7.31-1.18,2-.24,4,.82,6,0,1.45-.37,2.91-.55,4.36,0v1.64c-.22.46-.5.81-1.09.55Z"/>
    <path class="cls-47" d="m315.63,124.02c1.24-1.33,2.95-2.13,3.79-3.93.41-.87,1.54-1.38,2.21.12-2.03,1.46-2.85,4.02-4.91,5.45.19-.92.15-1.67-1.09-1.64Z"/>
    <path class="cls-47" d="m208.24,210.14c-3.09,3.33-6.25,6.5-11.45,4.91.32-.44.78-1.09,1.25-.87,3.27,1.54,5.12-1.14,7.44-2.4.94-.51,1.6-1.48,2.75-1.64Z"/>
    <path class="cls-46" d="m225.14,254.84c3.05,1.47,4.39,4.39,6,7.09-2.67-1.79-4.84-4.01-6-7.09Z"/>
    <path class="cls-8" d="m287.87,326.77c-.03.57-.07,1.14-.1,1.71-3.15-.97-1.09-3.48-1.61-5.31,1.26.99,3.72,0,3.83,2.57-.53.71-1.85-.22-2.12,1.03Z"/>
    <path class="cls-2" d="m272,373.11c-2.83-2.11-2.85-3.31-.07-5.97.02,1.99.56,3.97.07,5.97Z"/>
    <path class="cls-60" d="m266.58,131.65c-.59-3.47-1.28-6.93-.04-10.4-.12,3.47.78,6.93.04,10.4Z"/>
    <path class="cls-47" d="m195.16,217.77c-.62.53-1.34,1.28-2.1.53-.87-.85-.13-1.81.5-2.35,1.39-1.2,1.43-2.61,1.05-4.18,1.09,1.19,1.43,2.44.28,3.79-.71.84-.74,1.58.26,2.2Z"/>
    <path class="cls-47" d="m264.39,180.71c-.28,1.01.39,1.06,1.09,1.09-.88.96-2.19,1.07-3.27,1.64-.27.27-.64.28-.98.38-.56.16-1.25.84-1.66.13-.48-.84.48-1.16,1-1.59,1.35-.37,2.35-1.55,3.82-1.64Z"/>
    <path class="cls-47" d="m292.19,140.37c.36-.18.73-.36,1.09-.55.36.18.73.36,1.09.55-.27.36-.48.78-.81,1.06-.76.65-1.21,2.54-2.23,1.8-1.2-.85.3-1.95.86-2.86Z"/>
    <path class="cls-47" d="m277.47,342.59v12.54c-.87-4.18-.87-8.36,0-12.54Z"/>
    <path class="cls-47" d="m300.37,142.55c.18-.18.36-.36.55-.55.6-.35,1.05-.92,1.66-1.24.75-.39,1.52-.56,1.61.7-.39,3.44-2.26,1.73-3.82,1.09Z"/>
    <path class="cls-47" d="m304.18,141.46c-1.29-1.02-2.16.51-3.27.55.88-1.54,2.43-2.32,3.82-3.27.54,1.05.62,2.01-.55,2.73Z"/>
    <path class="cls-46" d="m233.86,264.1c2.24.61,3.4,2.16,3.82,4.36-1.62-1.15-3-2.51-3.82-4.36Z"/>
    <path class="cls-8" d="m287.76,328.9c.18,1.58.56,3.24-1.54,3.93-.73-1.8-.74-3.31,1.54-3.93Z"/>
    <path class="cls-4" d="m200.71,169.65c1.63,1.66,1.45,3.57.75,5.54-.96-.17-1.1-.78-.85-1.6.61-1.3-.4-2.64.1-3.94Z"/>
    <path class="cls-2" d="m286.3,333.33c.93.07,1.77.3,1.93,1.38.16,1.05-.42,1.62-1.39,1.89-.18-1.09-.36-2.18-.54-3.27Z"/>
    <path class="cls-47" d="m250.41,174.9c1.14-1.21,2.29-2.42,3.43-3.64-.36,1.88-1.65,2.97-2.89,4.1-.18-.16-.36-.31-.54-.47Z"/>
    <path class="cls-47" d="m268.2,171.99c.84.2,2.2-.85,2.44.7.18,1.13-1.05,1.24-1.89,1.48-.18-.73-.36-1.45-.55-2.18Z"/>
    <path class="cls-47" d="m239.31,189.97c.08-.93,2.33-1.42.55-2.73.73-.45,1.67-1.29,2.32-.44.67.88-.5,1.51-1.05,2.14-.47.55-1.09.9-1.82,1.02Z"/>
    <path class="cls-47" d="m239.31,187.79c-.93,1.39-2.25,2.23-3.82,2.73.65-1.77,1.55-3.21,3.82-2.73Z"/>
    <path class="cls-47" d="m260.57,182.35c-.15.4-.3.8-.45,1.21.7-.04,1.39-.08,2.09-.12-.28.22-.53.52-.84.65-.84.34-1.95,1.5-2.55.35-.65-1.24.7-1.75,1.75-2.08Z"/>
    <path class="cls-47" d="m194.61,211.23c-.81-2.48-1.12-5.03-1.09-7.63.97,2.46,1.42,4.99,1.09,7.63Z"/>
    <path class="cls-54" d="m200.61,173.59c.28.53.57,1.07.85,1.6.08.37.15.75.23,1.12-.43-.22-.6,1.57-1.15.18-.39-.98-.62-2.02-.92-3.03.36-.22.69-.15.98.13Z"/>
    <path class="cls-47" d="m260.03,283.18c-1.64-.35-2.6-2.07-4.36-2.18-.36-.36-.73-.73-1.09-1.09,2.32.25,4.15,1.31,5.45,3.27Z"/>
    <path class="cls-47" d="m195.16,284.82c-1.1-2.66-.29-5.46-.55-8.18,1.1,2.66.29,5.46.55,8.18Z"/>
    <path class="cls-14" d="m321.24,334.96c-.37.34-.74.67-1.12,1.01-.89-.67-1.73-1.37-1.81-2.6,1.14.23,1.99,1,2.93,1.6Z"/>
    <path class="cls-47" d="m291.64,156.73c.03-.62.42-1.35-.55-1.64.47-.66.87-1.41,2.06-1.42.22,1.4-.54,2.27-1.52,3.06Z"/>
    <path class="cls-47" d="m210.42,229.22c-2.11-1.25-2.63-2.85-1.09-4.91-.27,1.78.44,3.33,1.09,4.91Z"/>
    <path class="cls-2" d="m287.87,326.77c-.17-2.14,1.16-1.2,2.12-1.03.38.52.76,1.05,1.15,1.57-1.11-.05-2.06-1.06-3.27-.54Z"/>
    <path class="cls-47" d="m294.92,315.89c-1.52-.29-3.27-.19-3.82-2.18,1.3.67,2.94.76,3.82,2.18Z"/>
    <path class="cls-47" d="m221.32,241.76c-1.74-.44-2.22-2.14-3.27-3.27,1.79.39,2.54,1.82,3.27,3.27Z"/>
    <path class="cls-47" d="m273.66,210.69c1.06,2.11.33,4.36.55,6.54-1.06-2.11-.33-4.36-.55-6.54Z"/>
    <path class="cls-47" d="m276.38,313.16c.83,2.18.83,4.36,0,6.54v-6.54Z"/>
    <path class="cls-46" d="m252.4,277.73c-1.44-1.12-1.55-2.74-1.64-4.36,1.2,1.21,1.15,2.88,1.64,4.36Z"/>
    <path class="cls-47" d="m281.83,342.59v-6c.83,2,.83,4,0,6Z"/>
    <path class="cls-47" d="m192.43,192.7v-6c.83,2,.83,4,0,6Z"/>
    <path class="cls-14" d="m316.18,330.02c1.68.5,1.77,2,2.13,3.34-1.39-.68-2.02-1.84-2.13-3.34Z"/>
    <path class="cls-47" d="m281.29,132.2c-.81-1.82-.81-3.63,0-5.45v5.45Z"/>
    <path class="cls-47" d="m293.28,138.19h-4.36c1.45-.4,2.91-1.51,4.36,0Z"/>
    <path class="cls-47" d="m247.49,193.25c1.01-.9,2.28-1.63,2.18-3.27,1.11,2.32-.26,2.97-2.18,3.27Z"/>
    <path class="cls-47" d="m263.3,285.91c-1.56-.35-2.41-1.54-3.27-2.73,1.56.35,2.41,1.54,3.27,2.73Z"/>
    <path class="cls-47" d="m281.83,331.69c-.99-1.74-.37-3.63-.55-5.45.99,1.74.37,3.63.55,5.45Z"/>
    <path class="cls-38" d="m198.31,354.62c-.7.01-1.09-.43-.93-1.02.52-1.95-.05-4.11.63-5.87,1.58-4.11.48-8.42,1.45-12.55.87-3.71.68-7.48.29-11.26-.13-1.26,1.32-2.52.02-3.92-.32-.34.3-.74.76-.85.8-.2,1.51-.33,2.19.44,3.07,3.45,6.37,6.7,9.22,10.32,1.21,1.53,3.14,2.16,4.04,3.9-1.68-.07-2.88-.77-4.23-1.94-2.1-1.82-4.46-3.54-7.25-4.36-.75-.22-1.09.06-1.4.81-.46,1.12-.63,2.19-.52,3.39.25,2.68-.45,5.3-.59,7.95-.05,1.04-.63,2.01.9,2.91.85.5.27,2.34-.73,3.33-.13-.45-.3-.22-.47-.02-.36,1.08-.73,2.17-1.09,3.25-2.84,1.6-.24,2.31.54,3.32-.18.38-.36.77-.53,1.15-.71.47-1.02,1.84-2.31,1.04Z"/>
    <path class="cls-42" d="m212.67,310.04c.41.54,1.74.9.5,1.78-.42.29-.85.8-1.81-.17-3.72-3.79-7.54-7.51-10.59-11.84-1.37-1.94-.7-4.6.54-6.71.35-.6-.04-1.51.82-1.82.24,3.43,1.08,6.28,4.37,8.42,2.27,1.48,4.83,3.44,4.77,6.94-.02,1.2,2.37,1.64,1.39,3.4Z"/>
    <path class="cls-33" d="m227.85,341.49c1.34-1.14.58-1.98-.44-2.69-.67-.46-1.16-1.14-.65-1.7.91-1.01,1.12.43,1.47.76,1.6,1.49,3.06,3.13,4.57,4.72,3.18,3.01,6.55,4.08,10.35,1.03.52-.42,1.19-.34,1.76.1.46.44.39,1.19.95,1.57l.02.05c.41,4.33-.95,5.56-5.46,4.92-5.88-.5-8.87-5.14-12.58-8.76Z"/>
    <path class="cls-23" d="m232.28,325.64c-1.07-.32-2.35-.16-3-1.44-.37.76.32,1,.55,1.43.24.45.3.83-.14,1.19-.49.41-.85.11-1.16-.21-1.07-1.09-2.17-2.17-3.17-3.32-2.43-2.81-5.1-5.38-7.82-7.91-1.14-1.06-1.95-2.47-2.91-3.72,2.04-.34,3.49.64,4.89,2.01,3.29,3.2,6.66,6.33,10.62,8.74,1.2.73,2,1.78,2.14,3.24Z"/>
    <path class="cls-2" d="m184.15,393.83c.1.15.22.29.28.46.45,1.24.53,3.09,1.94,3.26,1.25.15,1.8-1.78,2.89-2.44.37-.22.11-2.46,1.54-.69.1.12.22-2.01,1.14-2.74.37-.53.56-1.43,1.46-1.07.59.23.5.8.11,1.27.34,2.4-1.31,5.53-3.47,6.13-1.49.41-1.88,1.5-2.42,2.66-.96,2.03-2.14,2.2-3.29.31-.92-1.52-1.54-3.27-2.05-4.99-.41-1.41.75-1.85,1.87-2.14Z"/>
    <path class="cls-2" d="m275.74,402.52c-.22-.92-.89-2.95-.05-2.52,1.61.81,2.53-.21,3.52-.49,1.39-.39,2.49-1.65,3.67-2.61.68-.55,2.12.25,2.88-.86,1.65,1.27.08,2.7,0,3.97-.08,1.64-2.52,1.6-3.28,2.99-1.17,2.11-2.47.95-3.86.32-.89-.41-1.91-.54-2.88-.8Z"/>
    <path class="cls-2" d="m198.31,354.62c.83-.22,1.13-1.6,2.31-1.04.04.18.03.39.12.53,1.07,1.61-2.17,2.97-.69,3.92,2.06,1.33.36,2.59.51,3.8.28,2.27-2.42,3.5-2.31,5.93.06,1.4-.57,2.82-.9,4.24-1.61-.63-.92-1.77-.63-2.82-.29-.55-.92-1.18-.8-1.62,1-3.84,1.22-7.77,1.54-11.7.03-.44.56-.83.85-1.25Z"/>
    <path class="cls-18" d="m196.72,369.18c.1.96-.06,1.99.63,2.82.41,1.44,1.52,2.79.55,4.41-1.09,2.29-.53,4.67-.4,7.02-1.35,2.07-.82,4.47-1.1,6.75-.96-.08-.69-1.33-1.82-1.39-.37.94.97,2.75-1.07,3.08-.36-1.34-1-.45-1.56-.2-.01-.91-.03-1.83-.04-2.74.46-.18.92.96,1.49-.18,1.03-2.07,1.89-4.1,1.71-6.49-.26-3.57.76-7.12.3-10.71,1.02-.46-.43-2.31,1.32-2.36Z"/>
    <path class="cls-2" d="m305.81,315.35c-3.27-3.13-7.33-5.53-9.52-9.68-.68-1.28-1.64-2.28-2.45-3.42,2.74.31,5.05,1.02,5.65,4.31.31,1.68,1.39,2.82,3.32,3.4,3.46,1.04,3.74,1.86,3,5.37Z"/>
    <path class="cls-2" d="m309.08,320.81c-.76-2.02-3.53-2.84-3.27-5.47.95-.06,1.85-1.25,2.86.04.8,1.03,1.42,2,.9,3.37-.25.65-.33,1.37-.49,2.05Z"/>
    <path class="cls-2" d="m242.06,339.81c-2.29-1.78-3.47-4.2-4.03-6.97,1.77,1.82,3.56,3.62,5.31,5.47.51.55.68,1.25.34,1.99-.77.6-1.17-.02-1.62-.49Z"/>
    <path class="cls-2" d="m183.2,385.05c1.36,2.46,1.12,5.05.61,7.65-1.59-.33-2.49-1.39-1.8-2.84.75-1.57.68-3.24,1.18-4.81Z"/>
    <path class="cls-2" d="m197.49,383.43c-1.69-2.44-1.8-4.8.4-7.02.19,2.36,1.26,4.77-.4,7.02Z"/>
    <path class="cls-2" d="m240.43,350.25c3.57-.23,4.65-1.21,5.46-4.92.85,1.61,1.44,3.49-.06,4.76-1.52,1.29-3.57.89-5.4.17Z"/>
    <path class="cls-2" d="m271.93,394.95c.42,2.53.83,5.05,1.25,7.58-1.96-.96-2.62-4.94-1.25-7.58Z"/>
    <path class="cls-2" d="m245.87,345.28c-.63-.13-.97-.55-1.17-1.14-.53-1.07-2.21-.36-2.59-1.67.19-.31.37-.63.56-.94.03-1.04,1.15-.57,1.54-1.11,1.47,1.31,1.78,3.01,1.66,4.86Z"/>
    <path class="cls-2" d="m289.59,294.08v-4.35c1.73.77.14,2.61,1.5,3.23-.32.62-.81,1-1.5,1.13Z"/>
    <path class="cls-1" d="m204.83,276.42c-.34-2.41-.86-4.81,0-7.21v7.21Z"/>
    <path class="cls-2" d="m201.15,352.43c-1.08-.3-2.12-.8-2.23-2.01-.1-1.04.86-1.2,1.69-1.3-1.4,1.36.05,2.26.54,3.32Z"/>
    <path class="cls-2" d="m216.98,334.37c1.29.91,2.58,1.83,3.86,2.74-2.11.24-3.19-.97-3.86-2.74Z"/>
    <path class="cls-2" d="m204.08,343.6c.48.85.35,1.67-.32,2.7-.62-1.09.14-1.87.32-2.7Z"/>
    <path class="cls-62" d="m244.21,340.42c.2,1.35-1.07.68-1.54,1.11-1.13-.24-.62-1.07-.62-1.72.54.16,1.08.33,1.62.49.18.04.36.08.54.11Z"/>
    <path class="cls-2" d="m222.98,339.37c1.44.07,2.95-.02,3.74,1.59-1.44-.08-2.65-.68-3.74-1.59Z"/>
    <path class="cls-2" d="m201.7,345.86c-.34-.7-.67-1.4-1.19-2.49,1.89.28,1.55,1.55,1.66,2.51-.16,0-.31-.02-.47-.02Z"/>
    <path class="cls-55" d="m212.06,121.87c2.01-1.62,4.01-3.24,6.02-4.86-.34,1.18-1.09,2.06-1.99,2.86-4.03,3.55-7.38,7.73-10.91,11.74-.06.07-.1.15-.17.21-1.48,1.36-2.58,3.78-5.07,2.89-2.2-.78-1.68-3.23-1.97-4.99-1.19-7.24-1.02-14.57-1.15-21.88-.03-1.62.2-3.25.38-4.86.66-5.76-.59-11.35-1.27-17.01-.42-3.48-.14-7.05-.26-10.57-.16-4.57-1.45-6.18-5.11-6.75-1.83-.28-3.02.51-2.94,2.25.15,3.78-1,7.58.2,11.34.08.26.16.54.15.8-.46,10.78,1.15,21.55-.23,32.35-.64,5.01-1.07,10.1-.77,15.19-.76,2.5.22,5.13-.55,7.63.02.9-.15,1.86.1,2.69,1.65,5.54-.99,9.32-5,12.58-.24-.02-.48-.04-.72-.06-1.38-2.38-.52-4.97-.44-7.39.2-5.78-.54-11.56.24-17.33.48-3.56.78-7.14,1.32-10.7.15-.99.47-2.05.2-2.96-1.69-5.64-.12-11.28-.1-16.91.01-5.13.78-10.24,1.29-15.35,1.09-1.76,1.21-3.64,1.03-5.68-.24-2.76.62-5.54-.03-8.32,2.08-4.09,4.79-5.26,9.4-3.39,2.64,1.08,5.08,2.9,6.2,5.76.7,1.79,2.34,3.32,1.7,5.53h0c1.53,1.78,3.02,3.56,1.83,6.18-.32.69.85,1.17.48,1.96-.04,1.29-.32,2.61.53,3.78.79.95.32,2.1.47,3.15.36,2.54-.43,5.13.5,7.69.33.92.02,2.25-.63,3.13-1.84,2.49-2.42,5.4-3.02,8.32-1.41,3.67-2.43,7.3-.38,11.15.87,1.63.38,3.57.5,5.37.04.62-.14,1.4.56,1.7.71.31,1.18-.34,1.59-.79,1.24-1.33,2.73-2.39,3.99-3.7,1.36-.88,2.3-2.39,4.03-2.73Z"/>
    <path class="cls-26" d="m184.16,82.65c.16,1.03-.24,2.18.83,3.02.25.2.39.96.21,1.24-2.7,4.39-1.35,9.37-2,14.05-.34,2.47-.1,5.03-.54,7.55-.29,1.66-.43,3.37.61,4.95.93,1.4.51,3.14.23,4.47-2.04,9.69-1.94,19.5-2.01,29.31-.01,2.08.02,4.16-.68,6.16-3.69,3.44-7.28,7-11.1,10.3-5.84,5.06-11.93,9.84-17.74,14.95-4.79,4.21-9.94,7.97-14.51,12.47-3.94,3.88-8.06,7.66-12.67,10.81.24-.59.31-1.44.75-1.71,4.3-2.66,6.1-7.71,10.3-10.53,3.9-2.62,7.91-5.31,11.04-8.73,1.88-2.06,3.75-4.43,5.73-6.28,4.23-3.96,6.81-9.49,12.1-12.41,2.24-1.23,4.01-3.16,5.11-5.47,1.17-2.46,3.35-3.51,5.54-4.64,1.56-.81,1.92-2.05,2.55-3.76,1.67-4.52,1.19-8.53-.17-12.86-.45-1.44,1.81-2.78,1.18-4.76-.73-2.29-.75-4.59.99-6.61.38-.44.65-1.24.25-1.8-1.21-1.71-.63-3.46-.35-5.24.64-4.13.07-8.14-.68-12.26-.69-3.78-.23-7.76-.27-11.66-.03-3.36-.04-6.72-.06-10.08,0-1.37.08-2.69.75-3.96.46-.88.66-1.93.27-2.9-1.28-3.2-.2-5.82,1.88-8.25,1.35-1.59,2.79-3.13,3.91-4.88,1.72-2.68,4.33-3.04,7.09-3.1.81-.02,1.61.3,2.17.99,2.27,2.82,4.5,5.68,6.81,8.47,2.01,2.44,1.68,4.79-.07,7.17-2.3-2.12-2.35-5.63-5.04-7.67-1.92-1.45-3.6-2.56-6.08-3.05-3.06-.6-3.54,2.11-5.35,3-.9,4.53-1.95,9.05-.98,13.71Z"/>
    <path class="cls-27" d="m200.59,110.37c-.04-2.27,1.35-4.31,1.09-6.6-.18-1.59,1.56.03,1.61-1.04.09-1.88,1.96-3.65.33-5.63-.13-.16-.11-.47-.08-.71.29-2.61.6-5.21.9-7.81,1.17,2.13,2.81,4.18,1.14,6.79-.53.83-.23,1.5.36,2.18,1.53,1.73,2.3,3.64,1.26,5.95-.5,1.12.81,1.99.51,3.1-.11,2.32-1.43,4.88-.11,6.88,1.05,1.59.82,3.36,1.76,4.91.71,1.17-1.01,1.34-1.72,1.88-1.98-.88-3.73-2.17-5.82-2.87-.83-.28-1.13-1.31-1.18-2.28-.08-1.58-.29-3.16-.05-4.74Z"/>
    <path class="cls-37" d="m109.63,239.49c3.01,3.16,6.25,6.1,9.47,9,3.04,2.75,6.34,5.35,9.41,8.05,3.18,2.8,6.12,6.12,8.99,9.38,2.16,2.45,5.08,4.15,7.03,6.84-3.33.25-6.07-1.27-8.29-3.42-3.85-3.73-7.55-7.64-11.37-11.4-2.16-2.14-3.11-5.6-6.53-6.46-.22-.06-.54-.38-.54-.57.09-3.53-2.69-4.03-5.07-5.32-2.1-1.14-2.37-3.9-3.11-6.11Z"/>
    <path class="cls-9" d="m170.13,292.93c2.28.76,4.55,1.66,6.34,3.23,2.06,1.8,3.24,4.46,5.61,6.05,1.15.77.95,1.93.67,3.17-.26,1.11-.15,2.31-.2,3.48-1.06-.72-1.94-1.57-2.49-2.78-.57-1.26-1.61-1.98-2.81-2.73-3.83-2.4-5.45-6.46-7.12-10.41Z"/>
    <path class="cls-17" d="m152.12,279.36c2.31,1.67,4.59,3.37,6.93,5,1.37.95,2.83,1.76,4.22,2.69.53.35,1.01.83.48,1.56-2.27.05-4.41-.73-6.56-1.28-1.62-.42-3.2-1.46-3.14-3.51.03-1.06-.58-1.31-1.24-1.81-.84-.63-2.26-1.31-.68-2.64Z"/>
    <path class="cls-26" d="m203.91,84.79c-.53-1.12-2.92-1.75-.91-3.66.15-.15-.17-2.49-1.54-3.21-.62-.33-.59-.42.14-1.28,4.41,1.69,2.59,5.13,2.3,8.15Z"/>
    <path class="cls-32" d="m290.61,85.34c-1.49-1.93.64-4.32-.8-6.38-.3-.43-.46-1.18-.94-.9-2.15,1.23-1.94-.67-2.58-1.57.83-.6,1.34.24,1.95.1.65-.15,1.3-.36.55-1.13-2.83-2.93-2.03-6.78-2.64-10.27,1.2.38,2.31,1.17,3.24,1.82,1.36.95,3.4,2.27,2.04,4.72-1.03,1.87.79,3.02,1.43,4.31,1.95,3.91,1.36,6.98-2.25,9.31Z"/>
    <path class="cls-6" d="m314.56,146.42c-1.26-.41-.54-1-.16-1.59,2.34-3.58,5.96-5.98,8.6-9.3,3.77-4.74,9.09-7.89,13.07-12.44.4-.45,1.06-1.01,2.13-.83-.78,2.17-3.54,3.01-3.62,5.49-6.68,5.42-13.28,10.93-18.8,17.6-.34.41-.81.71-1.22,1.06Z"/>
    <path class="cls-39" d="m287.91,230.31c.71-.54,1.42-1.08,2.14-1.62-.68,1.44.12,2.46.87,3.6,1.05,1.6.98,2.88-1.4,2.97,0,0-.06-.07-.06-.07-.5-1.49-1.99-2.61-1.67-4.41.03-.16.07-.32.13-.47Z"/>
    <path class="cls-55" d="m218.13,116.96c4.43-5.02,7.95-10.93,14.07-14.29.03,1.03-.26,1.96-.87,2.78-3.57,4.78-7.38,9.29-13.19,11.51Z"/>
    <path class="cls-47" d="m186.44,138.19c.25-2.54-.56-5.15.55-7.63-.25,2.54.56,5.15-.55,7.63Z"/>
    <path class="cls-2" d="m142.75,210.01c.02-.13.05-.26.1-.38,2.58-.95,4.78-2.98,7.79-2.75.37.03.66-.35.78-.69.77-2.33,2.65-3.46,4.57-4.75,1.61-1.09,3.78-2.01,3.97-4.51.03-.34.29-.73.6-.88,6.08-3.08,9.74-9.72,16.78-11.44,1.28-.31,2.45-1.01,3.25-2.28.53-.85,1.48-1.41,2.53-.5.99,2.8-.03,5.58-.91,7.99-.63,1.7-.05,2.95-.07,4.38-.03,2.74-.62,5.41-.44,8.22.41,6.37.25,12.77.32,19.16-.29.78-.27,1.58-.27,2.39.01,2.79.1,5.61-1.81,7.97-.22.28-.37.65-.37,1.01-.1,4.57-.5,9.11-.1,13.73.5,5.76,3.01,11.1,3.09,16.89.39,2.74-.5,5.41-.5,8.12-3.23.81-6.5,1.23-9.8.55-1.57-.33-2.66-1.58-3.6-2.78-4.34-5.61-9.51-10.45-14.27-15.67-2.85-3.13-6.43-5.59-8.56-9.39-.57-1.01-1.73-1.24-2.81-1.48-1.52-.34-2.7-1.21-3.19-2.68-.58-1.74-1.76-2.9-3.17-3.91-2.54-1.02-4.91-2.2-5.76-5.16-.21-.74-.94-1.33-1.55-1.87-3.49-3.1-2.14-3.94.36-6.44,2-2,4.63-3.14,6.81-4.99,2.7-2.29,3.63-5.7,6.25-7.86Z"/>
    <path class="cls-19" d="m137.39,235.21c1.5,1.29,3.86,1.81,3.56,4.64-.11,1.07,1.18,1.66,2.13,1.75,2.45.24,3.81,1.58,4.93,3.68.79,1.48,2.06,2.79,3.34,3.92,5.93,5.24,10.9,11.39,16.29,17.13.49.52,1.05,1.09,1.27,1.75,1.05,3.14,5.53,4.08,8.87,2.71,1.91-.79,2.86.62,4.26.91.17,3.26.35,6.52.52,9.78-.78,1.05-1.61.9-2.56.2-3.51-2.55-6.95-5.24-9.88-8.39-5.81-6.24-12.54-11.5-18.26-17.81-5.13-5.67-11.12-10.47-16.68-15.67-2.89-2.7-5.57-5.84-9.02-7.96-1.28-.79-.9-2.33-1.81-3.23.14-1.44.84-2.51,2.07-3.25,1.35,2.54,4.36,3.63,5.47,6.41.62,1.54,1.24,3.15,3.56,2.67.54-.11,1.32.43,1.96.76Z"/>
    <path class="cls-28" d="m183.11,181.83c-.91.13-1.47.72-1.76,1.53-.44,1.27-1.04,2.02-2.6,2.29-4.22.72-7.19,4.03-10.94,5.78-.64.3-.79.92-.97,1.55-.62,2.11-1.61,3.81-4.27,3.4-1.21-.18-1.48.39-1.52,1.57-.11,3.01-2.84,4.06-4.85,5.11-1.85.96-3.14,1.84-3.48,3.9-.25,1.51-.87,2.41-2.58,1.53-1.12-.58-2.13-.03-3.08.49-1.33.73-2.71.98-4.2.65,2.48-4.27,6.6-7.12,9.57-10.96.22-.28.52-.69.8-.71,4.98-.3,6.92-4.76,10.04-7.5,3.42-3.01,6.38-6.54,9.54-9.84.79.02,1.58-.45,2.36-.06,1.77.88,2.81.02,3.7-1.43.58-.93,1.33-1.72,2.61-1.06.88.41.98.35,1.46-1.01.35,1.62.47,3.19.18,4.77Z"/>
    <path class="cls-61" d="m124.34,228.63c3.04,1.91,5.46,4.48,7.75,7.19.29.34.49.8.84,1.05,7.76,5.66,14.33,12.65,21.22,19.26,6.93,6.64,13.64,13.52,20.44,20.29,1.14,1.14,2.13,2.5,4.02,2.49.72,0,1.1.55,1.32,1.19.44,1.29,1.45,1.48,2.62,1.37.06.79.43,1.74-.48,2.2-.82.41-1.24-.51-1.81-.9-6.3-4.3-11.36-10.02-17.13-14.92-4.13-3.51-8.07-7.16-11.79-11.09-3.43-3.64-7.19-6.97-10.79-10.45-.6-.58-1.21-1.1-2.02-1.34-2.14-.62-3.19-2.01-4.14-4.1-1.04-2.28-3.88-3.14-5.97-4.55-.81-.55-1.72-.85-2.37-1.69-1.36-1.77-2.92-3.27-5.45-2.53,0-.73,0-1.25,0-1.78.02-1.09-.01-2.2,1.22-2.75,1.43-.64,1.56.72,2.15,1.38.01.02.15-.05.21-.1.06-.06.1-.15.15-.22Z"/>
    <path class="cls-24" d="m182.54,263.57c-.41-3.18-2.59-5.76-3.14-8.81-.38-2.12-1.38-4.1-1.05-6.53.2-1.5-.49-3.46-.43-5.22.15-4.74-.83-9.62,2.08-14,.99-1.5,1.13-3.4,1.23-5.2.05-.86.18-1.6.78-2.23.99,7.34,1.84,14.69,1.04,22.11-.04.34-.32.72-.24,1.01.55,2.04.79,3.94-.05,6.08-.81,2.07.74,4.29.22,6.59-.45,2-.31,4.13-.44,6.2Z"/>
    <path class="cls-28" d="m137.39,235.21c-3.14-.02-5.46-1.18-6.62-4.33-.42-1.15-1.21-2.02-2.8-2.1-2.32-.11-.98-2.27-1.56-3.4,3.8-4.08,7.53-8.22,11.44-12.19,1.35-1.37,2.84-2.78,4.9-3.17.78,1.18,1.39,2.29-.81,2.57-.42.05-1.01.41-.86.9.85,2.71-1.59,3.45-2.89,4.78-.85.87-1.89,1.31-2.22,2.79-.37,1.64-2.34,1.12-3.47,1.18-2.46.12-2.69,2.49-4.1,3.61-.79.62.7,1.78,1.51,2.48.14.12.25.26.36.41,1.88,2.7,3.37,5.84,7.12,6.49Z"/>
    <path class="cls-51" d="m181.47,178.07c-1.69.74-1.6,2.94-3.24,3.84-1.36.75-2.43,2.05-3.63-.18-.29-.54-1.18-.75-1.8-1.11,2.45-1.69,2.73-5.36,5.97-6.4,1.01-.33.66-2.85,2.41-2.18.96.37.38,2.06,1.22,3.08.56.67-1.21,1.73-.93,2.95Z"/>
    <path class="cls-47" d="m285.29,151.49c-1.02-.1-1.52-.62-1.59-1.41-.1-1.15.78-1.55,1.68-1.8.61-.17,1.15.07,1.11.78-.06.99-.3,1.96-1.21,2.43Z"/>
    <path class="cls-62" d="m242.11,342.47c1.55-.51,2.34.16,2.59,1.67-.25-.09-.64-.33-.74-.25-3.51,3.12-7.61,2.83-11.31-.84-.05-.05.09-.31.15-.47,2.3.64,4.09,3.23,7.07,1.74-1.15-1.84-3.43-2.95-3.59-5.79,1.9.93,3.76,1.3,4.25,3.6.16.78.74,1.67,1.58.34Z"/>
    <path class="cls-33" d="m199.83,265.68c.61,3.25,1.13,5.9.82,8.66-1.37-2.56-1.64-5.24-.82-8.66Z"/>
    <path class="cls-2" d="m268.66,272.28c-1.83.08-3.7-.28-5.44.58-.54-.43-1.68-.47-1.05-1.65-1.07-1.98-1.95-4.15-4.4-4.9-.16,0-.31-.04-.45-.11.98-2.42-.3-4.1-2.05-5.36-1.74-1.26-2.91-2.66-2.96-4.89-.01-.5-.26-1.2-.64-1.44-2.48-1.56-3.76-4.33-6.31-5.9-1.94-1.19-4-2.92-4.89-4.91-1.85-4.14-4.85-7.03-8.48-9.27-3.37-2.08-4.11-5.78-6.2-8.63-.37-.5-.44-1.28.15-1.75,2.71-2.14,4.28-5.34,7.07-7.44,1.51-1.14,2.63-2.68,3.66-4.33,2.82-4.51,6.92-7.3,12.24-8.11,1-.15,1.95-.16,2.68-1.04,1.88-2.27,4.18-2.67,6.72-1.24,1.68.95,2.66-.42,4.18-1.01-.84,3.51,1.29,7.05-1.1,10.6-1.22,1.81-1.5,4.78-.27,6.68,1.32,2.04,1.25,3.92.93,5.91-.24,1.51-.06,2.63,1.09,3.65,1.15,1.02,1.65,2.32,1.48,3.9-.21,1.93.57,3.35,2.41,4.12.23,7.84.4,15.68.72,23.51.18,4.35.61,8.69.92,13.03Z"/>
    <path class="cls-57" d="m251.88,261.5c-.33.37-.5,1.05-.98.74-.65-.43-1.17-1.08-1.64-1.71-.04-.06.69-.69,1.06-1.06.52.68,1.04,1.36,1.56,2.04Z"/>
    <path class="cls-22" d="m200.59,110.37c.28,1.77,1.39,3.3,1.41,5.14,0,1.1.82,1.44,1.65,1.35,2.61-.3,3.46,1.33,3.99,3.4.04.75-.08,1.54.47,2.18.55.83.55,1.81.74,2.73-1.84,1.87-3.66,3.75-5.52,5.6-.42.41-.81,1.14-1.56.79-.7-.32-1.03-.99-1.05-1.78-.02-1.36-.05-2.72-.05-4.07,0-1.54.07-3.04-1.16-4.31-.44-.45-.63-1.36-.58-2.03.24-3.05.42-6.13,1.65-9.01Z"/>
    <path class="cls-27" d="m208.85,125.17c-2.57-.29-.86-1.72-.74-2.73.86.29,1.6.24,2.09-.67.51-.94,1.42-1.03,2.35-1.05-.16.38-.33.76-.49,1.14-1.07,1.1-2.14,2.2-3.21,3.31Z"/>
    <path class="cls-2" d="m257.77,266.32c2.96-.22,4.96,2.01,4.4,4.9-.93.12-1.44-.32-1.9-1.12-.75-1.31-1.66-2.52-2.5-3.78Z"/>
    <path class="cls-41" d="m260.01,276.65c.89-1.08,1.71-1.31,2.74-.06.94,1.15,2.09,2.13,3.56,3.59-3.12-.19-4.39-2.45-6.31-3.54h0Z"/>
    <path class="cls-13" d="m287.78,230.79c.64.58,1.26,1.19,1.94,1.72,1.38,1.07,1.22,1.93-.27,2.69-.76.21-1.52.41-2.28.62-.27.21-.53.41-.8.62-.65-1.27-.48-2.68-.65-4.03,1.56.58.97-1.58,2.05-1.62Z"/>
    <path class="cls-20" d="m185.85,96.83c1.19.48,1.54,1.41,1.37,2.75-.51,4.01.13,8.05-1.03,12.09-.78,2.75.75,5.85.22,8.83-.08.43-.08.87-.37,1.29-1.19-8.31-1.98-16.61-.18-24.97Z"/>
    <path class="cls-63" d="m184.16,82.65c-1.5-.63-1.65-1.97-1.78-3.33-.27-3,.72-5.89.8-8.86.03-1.09,1.08-1.3,1.96-1.52,1.48,1.18.39,2.63.42,3.97.06,2.25.25,4.5.26,6.75,0,1.24.43,2.87-1.67,3Z"/>
    <path class="cls-2" d="m174.39,201.92c0,5.04.6,10.17-.2,15.08-.59,3.62-.33,6.92.08,10.42.29,2.47-1.16,4.73-2.18,6.92-1.27,2.71-1.26,5.03-.29,8,1.89,5.8,4,11.62,4.49,17.81.14,1.69-.52,2.39-2.22,2.09-1.71-.3-3.3-.64-4.36-2.36-.58-.94-1.69-1.7-2.74-2.16-3.67-1.63-5.93-4.61-8.17-7.74-3.67-5.11-8-9.58-12.75-13.78-3.15-2.79-6.7-5.56-8.52-9.7-.45-1.02-.78-1.88.16-2.68,3.18-2.72,5.82-5.85,7.72-9.62,1.1-2.18,3.12-2.96,5.45-2.96,2.79,0,4.9-1.12,6.28-3.57.89-1.57,2.52-2.46,3.9-3.28,2.62-1.55,4.28-4.13,6.9-5.65,1.51-.88,2.26-2.55,2.91-4.18.38-.96.91-1.88,2.15-1.7,1.3.18,1.4,1.25,1.43,2.28.05,2.27-.12,4.55.67,6.76-.23,0-.46,0-.7,0Z"/>
  </g>
</svg>